<svg width="362px" height="92px" viewBox="0 0 362 92" version="1.1" xmlns="http://www.w3.org/2000/svg">
    <g stroke="none" stroke-width="1" fill="none" fill-rule="evenodd">
        <g transform="translate(-860.000000, -189.000000)">
            <g transform="translate(860.000000, 189.000000)">
                <path d="M8.98115739,3.58222656 C6.46611833,3.58222656 4.70713395,5.5109375 4.53740739,8.18027344 L13.2551808,8.18027344 C13.1934621,5.49550781 11.5116261,3.58222656 8.98115739,3.58222656 Z M13.1934621,12.9789062 L15.8319386,12.9789062 C15.369048,15.7871094 12.653423,17.8546875 9.15088395,17.8546875 C4.55283708,17.8546875 1.76006364,14.6607422 1.76006364,9.61523438 C1.76006364,4.63144531 4.59912614,1.25234375 9.02744645,1.25234375 C13.3631886,1.25234375 16.0325246,4.4 16.0325246,9.26035156 L16.0325246,10.2787109 L4.5219777,10.2787109 L4.5219777,10.4330078 C4.5219777,13.5035156 6.32725114,15.5248047 9.2126027,15.5248047 C11.2493215,15.5248047 12.7460011,14.4910156 13.1934621,12.9789062 Z M32.2954152,6.46757812 C31.8170949,3.73652344 29.4563527,1.25234375 25.5835011,1.25234375 C21.1397511,1.25234375 18.2389699,4.55429687 18.2389699,9.55351562 C18.2389699,14.6607422 21.1551808,17.8546875 25.6143605,17.8546875 C29.2249074,17.8546875 31.8016652,15.7099609 32.3262746,12.6703125 L29.6723683,12.6703125 C29.1631886,14.4447266 27.7590871,15.4939453 25.6297902,15.4939453 C22.8370168,15.4939453 20.9700246,13.2257812 20.9700246,9.55351562 C20.9700246,5.97382812 22.8061574,3.61308594 25.5989308,3.61308594 C27.8670949,3.61308594 29.1786183,4.92460937 29.641509,6.46757812 L32.2954152,6.46757812 Z M39.2387746,10.4947266 L39.7325246,3.73652344 L45.194634,3.73652344 L45.194634,17.5769531 L47.8485402,17.5769531 L47.8485402,1.53007812 L37.340923,1.53007812 L36.7237355,10.4330078 C36.5231496,13.3800781 35.9213918,15.2470703 34.332134,15.2470703 C33.9463918,15.2470703 33.6532277,15.1699219 33.5143605,15.1236328 L33.5143605,17.5460937 C33.6995168,17.6232422 34.0081105,17.7158203 34.4710011,17.7158203 C37.8501027,17.7158203 38.9147511,14.9230469 39.2387746,10.4947266 Z M54.2827199,17.5769531 L62.3061574,5.634375 L62.4295949,5.634375 L62.4295949,17.5769531 L65.0835011,17.5769531 L65.0835011,1.53007812 L62.4295949,1.53007812 L54.4061574,13.4726562 L54.2827199,13.4726562 L54.2827199,1.53007812 L51.6288136,1.53007812 L51.6288136,17.5769531 L54.2827199,17.5769531 Z M81.0223683,11.4667969 L84.8643605,17.5769531 L87.8422902,17.5769531 L82.5036183,9.44550781 L87.9194386,1.53007812 L84.9260793,1.53007812 L81.1149465,7.54765625 L81.0532277,7.54765625 L77.1958058,1.53007812 L74.2024465,1.53007812 L79.5719777,9.55351562 L74.1098683,17.5769531 L77.087798,17.5769531 L80.9606496,11.4667969 L81.0223683,11.4667969 Z M96.8069386,17.8546875 C92.3631886,17.8546875 89.3698293,14.6607422 89.3698293,9.55351562 C89.3698293,4.43085937 92.3631886,1.25234375 96.8069386,1.25234375 C101.235259,1.25234375 104.228618,4.43085937 104.228618,9.55351562 C104.228618,14.6607422 101.235259,17.8546875 96.8069386,17.8546875 Z M96.8069386,15.4939453 C99.6460011,15.4939453 101.497564,13.3337891 101.497564,9.55351562 C101.497564,5.77324219 99.6460011,3.61308594 96.8069386,3.61308594 C93.9678761,3.61308594 92.100884,5.77324219 92.100884,9.55351562 C92.100884,13.3337891 93.9678761,15.4939453 96.8069386,15.4939453 Z M118.331353,1.53007812 L105.308696,1.53007812 L105.308696,3.73652344 L110.493071,3.73652344 L110.493071,17.5769531 L113.146978,17.5769531 L113.146978,3.73652344 L118.331353,3.73652344 L118.331353,1.53007812 Z M123.469439,17.5769531 L131.492876,5.634375 L131.616314,5.634375 L131.616314,17.5769531 L134.27022,17.5769531 L134.27022,1.53007812 L131.616314,1.53007812 L123.592876,13.4726562 L123.469439,13.4726562 L123.469439,1.53007812 L120.815532,1.53007812 L120.815532,17.5769531 L123.469439,17.5769531 Z M149.777056,1.53007812 L136.7544,1.53007812 L136.7544,3.73652344 L141.938775,3.73652344 L141.938775,17.5769531 L144.592681,17.5769531 L144.592681,3.73652344 L149.777056,3.73652344 L149.777056,1.53007812 Z M158.402251,3.58222656 C155.887212,3.58222656 154.128228,5.5109375 153.958501,8.18027344 L162.676275,8.18027344 C162.614556,5.49550781 160.93272,3.58222656 158.402251,3.58222656 Z M162.614556,12.9789062 L165.253032,12.9789062 C164.790142,15.7871094 162.074517,17.8546875 158.571978,17.8546875 C153.973931,17.8546875 151.181157,14.6607422 151.181157,9.61523438 C151.181157,4.63144531 154.02022,1.25234375 158.44854,1.25234375 C162.784282,1.25234375 165.453618,4.4 165.453618,9.26035156 L165.453618,10.2787109 L153.943071,10.2787109 L153.943071,10.4330078 C153.943071,13.5035156 155.748345,15.5248047 158.633696,15.5248047 C160.670415,15.5248047 162.167095,14.4910156 162.614556,12.9789062 Z M185.342486,17.5769531 L189.832525,17.5769531 L189.832525,1.03632812 L174.649712,1.03632812 L174.649712,17.5769531 L179.139751,17.5769531 L179.139751,4.43085937 L185.342486,4.43085937 L185.342486,17.5769531 Z M202.731743,0.774023437 C206.928618,0.774023437 209.505376,3.96796875 209.505376,9.30664062 C209.505376,14.6298828 206.944048,17.8392578 202.808892,17.8392578 C200.401861,17.8392578 198.550298,16.6666016 197.670806,14.7996094 L197.578228,14.7996094 L197.578228,22.9773437 L193.072759,22.9773437 L193.072759,1.03632812 L197.516509,1.03632812 L197.516509,3.92167969 L197.609087,3.92167969 C198.504009,1.97753906 200.340142,0.774023437 202.731743,0.774023437 Z M201.219634,14.2132812 C203.472368,14.2132812 204.8919,12.3154297 204.8919,9.30664062 C204.8919,6.31328125 203.472368,4.38457031 201.219634,4.38457031 C199.013189,4.38457031 197.562798,6.34414062 197.562798,9.30664062 C197.562798,12.3 199.013189,14.2132812 201.219634,14.2132812 Z M219.750689,17.9318359 C214.75147,17.9318359 211.557525,14.7224609 211.557525,9.29121094 C211.557525,3.93710937 214.797759,0.681445312 219.750689,0.681445312 C224.703618,0.681445312 227.943853,3.92167969 227.943853,9.29121094 C227.943853,14.7378906 224.749907,17.9318359 219.750689,17.9318359 Z M219.750689,14.4910156 C221.957134,14.4910156 223.361236,12.6240234 223.361236,9.30664063 C223.361236,6.02011719 221.941704,4.12226562 219.750689,4.12226562 C217.559673,4.12226562 216.124712,6.02011719 216.124712,9.30664063 C216.124712,12.6240234 217.528814,14.4910156 219.750689,14.4910156 Z M241.383111,14.1669922 L241.383111,4.41542969 L236.430181,4.41542969 L236.059868,9.64609375 C235.936431,11.4050781 235.596978,12.9326172 234.856353,14.0435547 L234.856353,14.1669922 L241.383111,14.1669922 Z M233.097368,21.8664062 L229.008501,21.8664062 L229.008501,14.1669922 L230.273736,14.1669922 C231.477251,13.4880859 231.940142,11.5902344 232.094439,9.35292969 L232.634478,1.03632812 L245.87315,1.03632812 L245.87315,14.1669922 L248.32647,14.1669922 L248.32647,21.8664062 L244.222173,21.8664062 L244.222173,17.5769531 L233.097368,17.5769531 L233.097368,21.8664062 Z M257.862017,17.9318359 C252.862798,17.9318359 249.668853,14.7224609 249.668853,9.29121094 C249.668853,3.93710937 252.909087,0.681445312 257.862017,0.681445312 C262.814946,0.681445312 266.055181,3.92167969 266.055181,9.29121094 C266.055181,14.7378906 262.861236,17.9318359 257.862017,17.9318359 Z M257.862017,14.4910156 C260.068462,14.4910156 261.472564,12.6240234 261.472564,9.30664063 C261.472564,6.02011719 260.053032,4.12226562 257.862017,4.12226562 C255.671001,4.12226562 254.23604,6.02011719 254.23604,9.30664063 C254.23604,12.6240234 255.640142,14.4910156 257.862017,14.4910156 Z M274.155767,9.64609375 L274.47979,4.43085937 L278.676665,4.43085937 L278.676665,17.5769531 L283.166704,17.5769531 L283.166704,1.03632812 L270.622368,1.03632812 L270.159478,9.35292969 C270.020611,11.9605469 269.54229,13.8738281 267.968462,13.8738281 C267.521001,13.8738281 267.181548,13.8121094 266.996392,13.7658203 L266.996392,17.5615234 C267.227837,17.6541016 267.737017,17.7775391 268.431353,17.7775391 C272.52022,17.7775391 273.862603,14.5527344 274.155767,9.64609375 Z M304.043071,8.73574219 L310.06065,1.03632812 L304.937993,1.03632812 L299.985064,7.68652344 L299.861626,7.68652344 L299.861626,1.03632812 L295.417876,1.03632812 L295.417876,7.68652344 L295.309868,7.68652344 L290.341509,1.03632812 L285.172564,1.03632812 L291.251861,8.81289062 L284.956548,17.5769531 L290.248931,17.5769531 L295.309868,10.4792969 L295.417876,10.4792969 L295.417876,17.5769531 L299.861626,17.5769531 L299.861626,10.4792969 L299.985064,10.4792969 L305.030571,17.5769531 L310.384673,17.5769531 L304.043071,8.73574219 Z M316.587407,17.5769531 L323.160454,7.115625 L323.283892,7.115625 L323.283892,17.5769531 L327.696782,17.5769531 L327.696782,1.03632812 L323.283892,1.03632812 L316.710845,11.3742187 L316.587407,11.3742187 L316.587407,1.03632812 L312.174517,1.03632812 L312.174517,17.5769531 L316.587407,17.5769531 Z M344.329986,1.03632812 L329.980376,1.03632812 L329.980376,4.43085937 L334.917876,4.43085937 L334.917876,17.5769531 L339.407915,17.5769531 L339.407915,4.43085937 L344.329986,4.43085937 L344.329986,1.03632812 Z M353.603228,9.13691406 L351.119048,9.13691406 L351.119048,14.2132812 L353.603228,14.2132812 C355.238775,14.2132812 356.287993,13.1794922 356.287993,11.6673828 C356.287993,10.1552734 355.223345,9.13691406 353.603228,9.13691406 Z M346.629009,17.5769531 L346.629009,1.03632812 L351.119048,1.03632812 L351.119048,5.81953125 L354.343853,5.81953125 C358.247564,5.81953125 360.747173,8.103125 360.747173,11.6982422 C360.747173,15.2933594 358.247564,17.5769531 354.343853,17.5769531 L346.629009,17.5769531 Z" fill="#3B3B3B"></path>
                <path d="M24.9112355,29.3121094 C40.0897511,29.3121094 49.6518605,39.5140625 49.6518605,55.865625 C49.6518605,72.1816406 40.0897511,82.3835937 24.9112355,82.3835937 C9.69717301,82.3835937 0.170610515,72.1816406 0.170610515,55.865625 C0.170610515,39.5140625 9.69717301,29.3121094 24.9112355,29.3121094 Z M24.9112355,38.2699219 C16.522173,38.2699219 11.119048,45.0949219 11.119048,55.865625 C11.119048,66.6007812 16.4866261,73.3902344 24.9112355,73.3902344 C33.300298,73.3902344 38.6678761,66.6007812 38.6678761,55.865625 C38.6678761,45.0949219 33.300298,38.2699219 24.9112355,38.2699219 Z M96.0760793,65.3210937 C96.0760793,75.0253906 88.8245168,81.4949219 78.3026418,81.4949219 L57.2588918,81.4949219 L57.2588918,30.2007812 L91.3483449,30.2007812 L91.3483449,39.0519531 L67.994048,39.0519531 L67.994048,49.4671875 L77.947173,49.4671875 C88.6467824,49.4671875 96.0760793,55.8300781 96.0760793,65.3210937 Z M67.994048,72.928125 L75.6366261,72.928125 C81.6085011,72.928125 85.0920949,70.2621094 85.0920949,65.3210937 C85.0920949,60.3445312 81.6085011,57.6429687 75.6010793,57.6429687 L67.994048,57.6429687 L67.994048,72.928125 Z M171.471001,91.6257812 L171.471001,72.64375 L165.072564,72.64375 L165.072564,30.2007812 L154.337407,30.2007812 L154.337407,72.64375 L139.763189,72.64375 L139.763189,30.2007812 L129.028032,30.2007812 L129.028032,72.64375 L114.453814,72.64375 L114.453814,30.2007812 L103.718657,30.2007812 L103.718657,81.4949219 L161.766704,81.4949219 L161.766704,91.6257812 L171.471001,91.6257812 Z M211.496782,72.6082031 L188.249126,72.6082031 L188.249126,59.6691406 L210.181548,59.6691406 L210.181548,51.4222656 L188.249126,51.4222656 L188.249126,39.0519531 L211.496782,39.0519531 L211.496782,30.2007812 L177.51397,30.2007812 L177.51397,81.4949219 L211.496782,81.4949219 L211.496782,72.6082031 Z M264.568267,81.4949219 L264.568267,30.2007812 L253.833111,30.2007812 L253.833111,51.03125 L230.727642,51.03125 L230.727642,30.2007812 L219.992486,30.2007812 L219.992486,81.4949219 L230.727642,81.4949219 L230.727642,59.8824219 L253.833111,59.8824219 L253.833111,81.4949219 L264.568267,81.4949219 Z M307.864361,81.4949219 L318.56397,81.4949219 L318.56397,30.2007812 L308.219829,30.2007812 L284.936626,64.9300781 L284.510064,64.9300781 L284.510064,30.2007812 L273.810454,30.2007812 L273.810454,81.4949219 L284.154595,81.4949219 L307.437798,46.8011719 L307.864361,46.8011719 L307.864361,81.4949219 Z M361.78897,72.6082031 L338.541314,72.6082031 L338.541314,59.6691406 L360.473736,59.6691406 L360.473736,51.4222656 L338.541314,51.4222656 L338.541314,39.0519531 L361.78897,39.0519531 L361.78897,30.2007812 L327.806157,30.2007812 L327.806157,81.4949219 L361.78897,81.4949219 L361.78897,72.6082031 Z" fill="#000000"></path>
            </g>
        </g>
    </g>
</svg>