<?xml version="1.0" encoding="UTF-8"?>
<svg width="92px" height="33px" viewBox="0 0 92 33" version="1.1" xmlns="http://www.w3.org/2000/svg" xmlns:xlink="http://www.w3.org/1999/xlink">
    <!-- Generator: Sketch 44.1 (41455) - http://www.bohemiancoding.com/sketch -->
    <title>giga</title>
    <desc>Created with Sketch.</desc>
    <defs></defs>
    <g id="Welcome" stroke="none" stroke-width="1" fill="none" fill-rule="evenodd">
        <g id="Desktop-HD-в-кривых" transform="translate(-674.000000, -1517.000000)">
            <g id="giga" transform="translate(674.100000, 1517.888218)">
                <g id="Group" transform="translate(67.049610, 0.021899)" fill="#3DB54A">
                    <path d="M12.3067995,0.0397844382 C13.9996997,0.0397844382 15.4104499,1.45053461 15.4104499,3.23748482 C15.4104499,5.02443504 13.9996997,6.43518521 12.3067995,6.43518521 C10.6138993,6.43518521 9.20314916,5.02443504 9.20314916,3.23748482 C9.20314916,1.54458462 10.5198493,0.0397844382 12.3067995,0.0397844382" id="Shape"></path>
                    <path d="M11.8365495,7.1875853 C9.20314916,6.99948528 7.69834898,5.58873511 6.09949879,4.74228501 C-0.484002009,0.980284552 -2.17690221,4.83633502 3.46609847,8.31618544 C9.01504914,11.7960359 8.82694912,10.2912357 7.79239899,20.918887 C7.69834898,22.4236871 9.29719917,22.7058372 10.2376993,22.2355871 C11.5543994,21.577237 11.7424995,18.4735867 12.3067995,18.4735867 C12.7770496,18.4735867 13.3413497,21.6712871 14.3758998,22.2355871 C15.3163999,22.7058372 16.9152501,22.4236871 16.8212001,20.918887 C15.8807,10.2912357 15.5985499,11.7960359 21.1475006,8.31618544 C26.6964513,4.83633502 25.0976011,1.07433456 18.5141003,4.74228501 C16.53905,5.77683513 15.1282999,6.99948528 12.7770496,7.1875853 L12.7770496,7.1875853 L11.8365495,7.1875853 Z" id="Shape"></path>
                </g>
                <g id="Group-2" transform="translate(0.082717, 4.357885)" fill-rule="nonzero" fill="#000000">
                    <path d="M20.7745848,1.72299933 C20.4924347,2.09919938 20.3043347,2.56944943 20.3043347,3.32184953 L20.3043347,15.360251 C20.3043347,16.1126511 20.4924347,16.5829011 20.7745848,16.9591012 C21.0567348,17.3353012 21.5269849,17.5234012 21.9972349,17.5234012 C22.467485,17.5234012 22.937735,17.3353012 23.2198851,16.9591012 C23.5020351,16.5829011 23.6901351,16.0186011 23.6901351,15.360251 L23.6901351,3.22779951 C23.6901351,2.56944943 23.5020351,2.09919938 23.2198851,1.72299933 C22.843685,1.34679929 22.467485,1.15869926 21.9972349,1.15869926 C21.5269849,1.25274928 21.0567348,1.34679929 20.7745848,1.72299933" id="SVGID_1_"></path>
                    <path d="M50.4003384,8.77675018 C50.4003384,5.86119983 52.7515886,3.50994955 55.667139,3.50994955 C58.5826893,3.50994955 60.9339396,5.86119983 60.9339396,8.77675018 C60.9339396,11.6923005 58.5826893,14.0435508 55.667139,14.0435508 C52.7515886,14.0435508 50.4003384,11.6923005 50.4003384,8.77675018 M47.0145379,8.77675018 C47.0145379,13.5733008 50.8705884,17.4293512 55.667139,17.4293512 C57.2659892,17.4293512 58.8648394,16.9591012 60.1815395,16.2067011 L60.3696396,16.1126511 L60.8398896,15.830501 L61.0279896,16.3007511 L61.1220396,16.4888511 C61.4041897,17.1472012 61.9684897,17.5234012 62.7208898,17.5234012 C63.66139,17.5234012 64.41379,16.7710011 64.41379,15.736451 L64.41379,8.49460015 C64.31974,3.88614959 60.3696396,0.0300991281 55.761189,0.0300991281 C50.8705884,0.124149139 47.0145379,3.98019961 47.0145379,8.77675018" id="SVGID_3_"></path>
                    <path d="M3.5634327,8.8708002 C3.5634327,5.95524984 5.91468298,3.60399956 8.83023333,3.60399956 C11.7457837,3.60399956 14.097034,5.95524984 14.097034,8.8708002 C14.097034,11.7863505 11.7457837,14.1376008 8.83023333,14.1376008 C5.91468298,14.1376008 3.5634327,11.6923005 3.5634327,8.8708002 M0.0835822749,8.8708002 C0.0835822749,13.6673508 3.93963274,17.5234012 8.73618332,17.5234012 C10.2409835,17.5234012 11.6517337,17.1472012 12.9684338,16.3948011 L13.2505839,16.3007511 L13.9089339,15.924551 L13.9089339,18.3698513 C13.9089339,21.0032517 12.0279337,23.2604519 9.3945334,23.730702 L9.3945334,23.730702 L9.3945334,23.730702 C8.45403329,23.824752 7.70163319,24.5771521 7.70163319,25.5176522 C7.70163319,26.4581523 8.45403329,27.3046024 9.48858341,27.3046024 C9.67668343,27.3046024 9.77073344,27.3046024 9.95883347,27.2105524 L9.95883347,27.2105524 L9.95883347,27.2105524 C14.097034,26.5522023 17.2947344,22.9783019 17.4828344,18.8401014 L17.4828344,18.6520014 L17.4828344,8.49460015 C17.2947344,3.88614959 13.4386839,0.218199151 8.83023333,0.218199151 C4.03368275,0.124149139 0.0835822749,4.07424962 0.0835822749,8.8708002" id="SVGID_5_"></path>
                    <path d="M30.0855359,8.8708002 C30.0855359,5.95524984 32.4367862,3.60399956 35.3523365,3.60399956 C38.2678869,3.60399956 40.6191372,5.95524984 40.6191372,8.8708002 C40.6191372,11.7863505 38.2678869,14.1376008 35.3523365,14.1376008 C32.4367862,14.1376008 30.0855359,11.6923005 30.0855359,8.8708002 M26.6997355,8.8708002 C26.6997355,13.6673508 30.555786,17.5234012 35.3523365,17.5234012 C36.8571367,17.5234012 38.2678869,17.1472012 39.584587,16.3948011 L39.8667371,16.3007511 L40.5250872,15.924551 L40.5250872,18.3698513 C40.5250872,21.0032517 38.6440869,23.2604519 36.0106866,23.730702 L36.0106866,23.730702 L36.0106866,23.730702 C35.0701865,23.824752 34.3177864,24.5771521 34.3177864,25.5176522 C34.3177864,26.4581523 35.0701865,27.3046024 36.1047366,27.3046024 C36.2928366,27.3046024 36.3868867,27.3046024 36.5749867,27.2105524 L36.5749867,27.2105524 L36.5749867,27.2105524 C40.7131872,26.5522023 43.9108876,22.9783019 44.0989876,18.8401014 L44.0989876,18.6520014 L44.0989876,8.49460015 C43.9108876,3.88614959 40.0548371,0.218199151 35.4463865,0.218199151 C30.555786,0.124149139 26.6997355,4.07424962 26.6997355,8.8708002" id="SVGID_7_"></path>
                </g>
            </g>
        </g>
    </g>
</svg>