<?xml version="1.0" encoding="UTF-8"?>
<svg width="246px" height="261px" viewBox="0 0 246 261" version="1.1" xmlns="http://www.w3.org/2000/svg" xmlns:xlink="http://www.w3.org/1999/xlink">
    <!-- Generator: Sketch 44.1 (41455) - http://www.bohemiancoding.com/sketch -->
    <title>lukash denis</title>
    <desc>Created with Sketch.</desc>
    <defs></defs>
    <g id="Welcome" stroke="none" stroke-width="1" fill="none" fill-rule="evenodd">
        <g id="Desktop-HD-в-кривых" transform="translate(-780.000000, -1094.000000)">
            <g id="lukash-denis" transform="translate(772.000000, 1094.000000)">
                <path d="M103.212934,260.52462 L104.402387,260.52462 L104.402387,250.660362 L103.212934,250.660362 L103.212934,260.52462 Z M111.846723,253.415245 L110.65727,253.415245 L110.65727,257.592003 C110.65727,258.801964 109.960005,259.594933 108.804731,259.594933 C107.704145,259.594933 107.164106,258.972862 107.164106,257.817589 L107.164106,253.415245 L105.974653,253.415245 L105.974653,258.029503 C105.974653,259.642784 106.883833,260.647667 108.435591,260.647667 C109.529341,260.647667 110.267622,260.189659 110.69145,259.369347 L110.718794,259.369347 L110.718794,260.52462 L111.846723,260.52462 L111.846723,253.415245 Z M114.635786,256.573448 L114.635786,250.660362 L113.446333,250.660362 L113.446333,260.52462 L114.635786,260.52462 L114.635786,257.844933 L115.298872,257.216026 L117.937544,260.52462 L119.318403,260.52462 L116.139692,256.484581 L119.2227,253.415245 L117.780317,253.415245 L114.635786,256.573448 Z M122.524458,259.635948 C123.645552,259.635948 124.50688,258.849816 124.50688,257.824425 L124.50688,257.24337 L122.606489,257.359581 C121.649458,257.421105 121.102583,257.844933 121.102583,258.514855 C121.102583,259.191612 121.669966,259.635948 122.524458,259.635948 Z M122.257856,260.647667 C120.842817,260.647667 119.892622,259.793175 119.892622,258.514855 C119.892622,257.298058 120.829145,256.532433 122.46977,256.43673 L124.50688,256.320519 L124.50688,255.725792 C124.50688,254.857628 123.932661,254.338097 122.948286,254.338097 C122.03227,254.338097 121.458052,254.768761 121.307661,255.466026 L120.159223,255.466026 C120.241255,254.235558 121.293989,253.292198 122.97563,253.292198 C124.643598,253.292198 125.696333,254.194542 125.696333,255.609581 L125.696333,260.52462 L124.568403,260.52462 L124.568403,259.300987 L124.541059,259.300987 C124.117231,260.114464 123.214887,260.647667 122.257856,260.647667 Z M127.084028,255.377159 C127.084028,256.347862 127.699262,256.990441 128.950239,257.31173 L130.201216,257.633019 C131.00102,257.844933 131.294966,258.11837 131.294966,258.62423 C131.294966,259.266808 130.700239,259.676964 129.736372,259.676964 C128.772505,259.676964 128.211958,259.28048 128.082075,258.542198 L126.892622,258.542198 C127.015669,259.800011 128.102583,260.647667 129.661177,260.647667 C131.322309,260.647667 132.491255,259.772667 132.491255,258.535362 C132.491255,257.489464 131.971723,256.969933 130.536177,256.607628 L129.435591,256.341026 C128.62895,256.135948 128.252973,255.807823 128.252973,255.315636 C128.252973,254.693566 128.827192,254.262901 129.695356,254.262901 C130.570356,254.262901 131.124067,254.68673 131.206098,255.370323 L132.340864,255.370323 C132.286177,254.167198 131.206098,253.292198 129.736372,253.292198 C128.170942,253.292198 127.084028,254.160362 127.084028,255.377159 Z M133.783247,260.52462 L134.9727,260.52462 L134.9727,256.382042 C134.9727,255.151573 135.704145,254.344933 136.886762,254.344933 C138.00102,254.344933 138.568403,255.021691 138.568403,256.14962 L138.568403,260.52462 L139.757856,260.52462 L139.757856,255.93087 C139.757856,254.344933 138.814497,253.292198 137.255903,253.292198 C136.175825,253.292198 135.396528,253.757042 135.000044,254.550011 L134.9727,254.550011 L134.9727,250.660362 L133.783247,250.660362 L133.783247,260.52462 Z M142.273481,260.59298 C142.710981,260.59298 143.052778,260.251183 143.052778,259.813683 C143.052778,259.376183 142.710981,259.034386 142.273481,259.034386 C141.835981,259.034386 141.494184,259.376183 141.494184,259.813683 C141.494184,260.251183 141.835981,260.59298 142.273481,260.59298 Z M144.823286,260.52462 L146.012739,260.52462 L146.012739,256.067589 C146.012739,255.083214 146.696333,254.344933 147.639692,254.344933 C148.521528,254.344933 149.095747,254.90548 149.095747,255.759972 L149.095747,260.52462 L150.2852,260.52462 L150.2852,256.006066 C150.2852,255.042198 150.948286,254.344933 151.891645,254.344933 C152.828169,254.344933 153.368208,254.919151 153.368208,255.889855 L153.368208,260.52462 L154.557661,260.52462 L154.557661,255.616417 C154.557661,254.208214 153.648481,253.292198 152.240278,253.292198 C151.242231,253.292198 150.408247,253.798058 150.011762,254.645714 L149.984419,254.645714 C149.676802,253.784386 148.959028,253.292198 147.988325,253.292198 C147.031294,253.292198 146.306684,253.798058 145.971723,254.550011 L145.94438,254.550011 L145.94438,253.415245 L144.823286,253.415245 L144.823286,260.52462 Z M158.918989,254.324425 C157.804731,254.324425 157.025434,255.178917 156.950239,256.361534 L160.812544,256.361534 C160.7852,255.172081 160.040083,254.324425 158.918989,254.324425 Z M160.7852,258.487511 L161.954145,258.487511 C161.749067,259.731651 160.545942,260.647667 158.994184,260.647667 C156.957075,260.647667 155.71977,259.232628 155.71977,256.997276 C155.71977,254.789269 156.977583,253.292198 158.939497,253.292198 C160.860395,253.292198 162.043012,254.68673 162.043012,256.84005 L162.043012,257.291222 L156.943403,257.291222 L156.943403,257.359581 C156.943403,258.719933 157.743208,259.615441 159.021528,259.615441 C159.923872,259.615441 160.586958,259.157433 160.7852,258.487511 Z" id="lukash.me" fill="#6F6F6F"></path>
                <path d="M65.1953562,200.574146 L63.0068797,200.574146 L63.0068797,203.131763 L64.9668406,203.131763 C66.1182078,203.131763 66.6719187,202.709888 66.6719187,201.830982 C66.6719187,201.022388 66.153364,200.574146 65.1953562,200.574146 Z M65.0898875,204.362232 L63.0068797,204.362232 L63.0068797,207.236256 L65.3623484,207.236256 C66.4697703,207.236256 67.0674265,206.735279 67.0674265,205.812427 C67.0674265,204.836841 66.425825,204.362232 65.0898875,204.362232 Z M61.4951609,208.475513 L61.4951609,199.334888 L65.4062937,199.334888 C67.1201609,199.334888 68.1660594,200.222584 68.1660594,201.672779 C68.1660594,202.60442 67.5068797,203.465748 66.6631297,203.641529 L66.6631297,203.711841 C67.8144969,203.870045 68.5703562,204.705006 68.5703562,205.847584 C68.5703562,207.464771 67.3750437,208.475513 65.4326609,208.475513 L61.4951609,208.475513 Z M77.9307078,208.633716 C75.1269969,208.633716 73.6504344,206.752857 73.6504344,203.122974 C73.6504344,198.078052 74.9863719,195.977466 78.5371531,195.845631 L79.2139109,195.819263 C80.0928172,195.775318 81.0771922,195.599537 81.5957469,195.327076 L81.5957469,196.663013 C81.3057078,196.926685 80.3389109,197.155201 79.2842234,197.199146 L78.6074656,197.225513 C76.0674265,197.322193 75.3115672,198.438404 74.9424265,201.171802 L75.012739,201.171802 C75.6103953,200.090748 76.7529734,199.528248 78.1592234,199.528248 C80.62895,199.528248 82.2021922,201.268482 82.2021922,203.993091 C82.2021922,206.867115 80.5762156,208.633716 77.9307078,208.633716 Z M77.9307078,207.280201 C79.644575,207.280201 80.637739,206.093677 80.637739,203.993091 C80.637739,201.997974 79.644575,200.864185 77.9307078,200.864185 C76.2080515,200.864185 75.2148875,201.997974 75.2148875,203.993091 C75.2148875,206.093677 76.2080515,207.280201 77.9307078,207.280201 Z M85.9990672,204.441334 L86.2803172,200.591724 L89.3916453,200.591724 L89.3916453,208.475513 L90.903364,208.475513 L90.903364,199.334888 L84.9180125,199.334888 L84.56645,204.406177 C84.4521922,206.084888 84.1094187,207.148365 83.2041453,207.148365 C82.9844187,207.148365 82.8174265,207.10442 82.738325,207.078052 L82.738325,208.457935 C82.8437937,208.501881 83.019575,208.554615 83.2832469,208.554615 C85.2080515,208.554615 85.8144969,206.963795 85.9990672,204.441334 Z M96.8535594,208.633716 C94.3223094,208.633716 92.6172312,206.814381 92.6172312,203.905201 C92.6172312,200.987232 94.3223094,199.176685 96.8535594,199.176685 C99.3760203,199.176685 101.081098,200.987232 101.081098,203.905201 C101.081098,206.814381 99.3760203,208.633716 96.8535594,208.633716 Z M96.8535594,207.28899 C98.4707469,207.28899 99.5254344,206.058521 99.5254344,203.905201 C99.5254344,201.751881 98.4707469,200.521412 96.8535594,200.521412 C95.2363719,200.521412 94.1728953,201.751881 94.1728953,203.905201 C94.1728953,206.058521 95.2363719,207.28899 96.8535594,207.28899 Z M108.65727,200.591724 L108.65727,199.334888 L102.777387,199.334888 L102.777387,208.475513 L104.289106,208.475513 L104.289106,200.591724 L108.65727,200.591724 Z M113.640669,200.503834 C112.208052,200.503834 111.206098,201.602466 111.109419,203.122974 L116.075239,203.122974 C116.040083,201.593677 115.082075,200.503834 113.640669,200.503834 Z M116.040083,205.856373 L117.543012,205.856373 C117.279341,207.455982 115.732466,208.633716 113.737348,208.633716 C111.118208,208.633716 109.527387,206.814381 109.527387,203.940357 C109.527387,201.10149 111.144575,199.176685 113.667036,199.176685 C116.136762,199.176685 117.65727,200.969654 117.65727,203.738209 L117.65727,204.318287 L111.10063,204.318287 L111.10063,204.406177 C111.10063,206.155201 112.12895,207.306568 113.772505,207.306568 C114.932661,207.306568 115.7852,206.717701 116.040083,205.856373 Z M126.024458,203.808521 C125.936567,205.258716 125.760786,206.225513 125.136762,206.981373 L125.136762,207.051685 L131.289106,207.051685 L131.289106,197.216724 L126.437544,197.216724 L126.024458,203.808521 Z M123.704145,208.475513 L123.704145,210.980396 L122.236372,210.980396 L122.236372,207.051685 L123.176802,207.051685 C124.099653,206.559498 124.442427,205.434498 124.539106,203.773365 L125.022505,195.792896 L132.871137,195.792896 L132.871137,207.051685 L134.453169,207.051685 L134.453169,210.980396 L132.985395,210.980396 L132.985395,208.475513 L123.704145,208.475513 Z M139.726606,200.503834 C138.293989,200.503834 137.292036,201.602466 137.195356,203.122974 L142.161177,203.122974 C142.12602,201.593677 141.168012,200.503834 139.726606,200.503834 Z M142.12602,205.856373 L143.62895,205.856373 C143.365278,207.455982 141.818403,208.633716 139.823286,208.633716 C137.204145,208.633716 135.613325,206.814381 135.613325,203.940357 C135.613325,201.10149 137.230512,199.176685 139.752973,199.176685 C142.2227,199.176685 143.743208,200.969654 143.743208,203.738209 L143.743208,204.318287 L137.186567,204.318287 L137.186567,204.406177 C137.186567,206.155201 138.214887,207.306568 139.858442,207.306568 C141.018598,207.306568 141.871137,206.717701 142.12602,205.856373 Z M151.460005,208.475513 L152.971723,208.475513 L152.971723,199.334888 L151.460005,199.334888 L151.460005,203.105396 L146.951216,203.105396 L146.951216,199.334888 L145.439497,199.334888 L145.439497,208.475513 L146.951216,208.475513 L146.951216,204.362232 L151.460005,204.362232 L151.460005,208.475513 Z M156.636762,208.475513 L161.207075,201.672779 L161.277387,201.672779 L161.277387,208.475513 L162.789106,208.475513 L162.789106,199.334888 L161.277387,199.334888 L156.707075,206.137623 L156.636762,206.137623 L156.636762,199.334888 L155.125044,199.334888 L155.125044,208.475513 L156.636762,208.475513 Z M172.50102,202.147388 C172.228559,200.591724 170.883833,199.176685 168.677778,199.176685 C166.146528,199.176685 164.494184,201.057545 164.494184,203.905201 C164.494184,206.814381 166.155317,208.633716 168.695356,208.633716 C170.751997,208.633716 172.21977,207.412037 172.518598,205.680591 L171.00688,205.680591 C170.716841,206.691334 169.917036,207.28899 168.704145,207.28899 C167.113325,207.28899 166.049848,205.996998 166.049848,203.905201 C166.049848,201.866138 167.095747,200.521412 168.686567,200.521412 C169.978559,200.521412 170.72563,201.268482 170.989302,202.147388 L172.50102,202.147388 Z M177.124067,207.332935 C178.565473,207.332935 179.672895,206.322193 179.672895,205.003834 L179.672895,204.256763 L177.229536,204.406177 C175.999067,204.485279 175.295942,205.030201 175.295942,205.891529 C175.295942,206.761646 176.025434,207.332935 177.124067,207.332935 Z M176.781294,208.633716 C174.961958,208.633716 173.740278,207.535084 173.740278,205.891529 C173.740278,204.327076 174.94438,203.342701 177.053755,203.219654 L179.672895,203.07024 L179.672895,202.305591 C179.672895,201.189381 178.934614,200.521412 177.668989,200.521412 C176.491255,200.521412 175.752973,201.075123 175.559614,201.971607 L174.083052,201.971607 C174.18852,200.389576 175.542036,199.176685 177.704145,199.176685 C179.848677,199.176685 181.202192,200.336841 181.202192,202.156177 L181.202192,208.475513 L179.751997,208.475513 L179.751997,206.902271 L179.716841,206.902271 C179.171919,207.94817 178.011762,208.633716 176.781294,208.633716 Z M196.829145,208.475513 L196.829145,195.792896 L189.173872,195.792896 L188.716841,203.667896 C188.576216,206.120045 188.040083,207.10442 186.835981,207.10442 C186.695356,207.10442 186.458052,207.078052 186.361372,207.051685 L186.361372,208.466724 C186.519575,208.519459 186.748091,208.554615 186.976606,208.554615 C189.024458,208.554615 190.000044,207.10442 190.210981,203.72942 L190.615278,197.216724 L195.247114,197.216724 L195.247114,208.475513 L196.829145,208.475513 Z M199.984419,211.894459 C201.636762,211.894459 202.392622,211.252857 203.174848,209.117115 L206.769575,199.334888 L205.161177,199.334888 L202.629927,206.946216 L202.603559,206.946216 L200.072309,199.334888 L198.437544,199.334888 L201.812544,208.484302 L201.601606,209.125904 C201.250044,210.189381 200.775434,210.602466 199.922895,210.602466 C199.729536,210.602466 199.492231,210.593677 199.325239,210.558521 L199.325239,211.841724 C199.492231,211.876881 199.799848,211.894459 199.984419,211.894459 Z M211.234419,203.659107 L215.505903,199.334888 L213.616255,199.334888 L209.713911,203.377857 L209.643598,203.377857 L209.643598,199.334888 L208.13188,199.334888 L208.13188,208.475513 L209.643598,208.475513 L209.643598,204.080982 L209.713911,204.080982 L213.6602,208.475513 L215.62895,208.475513 L211.234419,203.659107 Z M219.66313,207.332935 C221.104536,207.332935 222.211958,206.322193 222.211958,205.003834 L222.211958,204.256763 L219.768598,204.406177 C218.53813,204.485279 217.835005,205.030201 217.835005,205.891529 C217.835005,206.761646 218.564497,207.332935 219.66313,207.332935 Z M219.320356,208.633716 C217.50102,208.633716 216.279341,207.535084 216.279341,205.891529 C216.279341,204.327076 217.483442,203.342701 219.592817,203.219654 L222.211958,203.07024 L222.211958,202.305591 C222.211958,201.189381 221.473677,200.521412 220.208052,200.521412 C219.030317,200.521412 218.292036,201.075123 218.098677,201.971607 L216.622114,201.971607 C216.727583,200.389576 218.081098,199.176685 220.243208,199.176685 C222.387739,199.176685 223.741255,200.336841 223.741255,202.156177 L223.741255,208.475513 L222.291059,208.475513 L222.291059,206.902271 L222.255903,206.902271 C221.710981,207.94817 220.550825,208.633716 219.320356,208.633716 Z M225.841841,208.475513 L237.126997,208.475513 L237.126997,199.334888 L235.615278,199.334888 L235.615278,207.218677 L232.240278,207.218677 L232.240278,199.334888 L230.728559,199.334888 L230.728559,207.218677 L227.353559,207.218677 L227.353559,199.334888 L225.841841,199.334888 L225.841841,208.475513 Z M242.294966,207.332935 C243.736372,207.332935 244.843794,206.322193 244.843794,205.003834 L244.843794,204.256763 L242.400434,204.406177 C241.169966,204.485279 240.466841,205.030201 240.466841,205.891529 C240.466841,206.761646 241.196333,207.332935 242.294966,207.332935 Z M241.952192,208.633716 C240.132856,208.633716 238.911177,207.535084 238.911177,205.891529 C238.911177,204.327076 240.115278,203.342701 242.224653,203.219654 L244.843794,203.07024 L244.843794,202.305591 C244.843794,201.189381 244.105512,200.521412 242.839887,200.521412 C241.662153,200.521412 240.923872,201.075123 240.730512,201.971607 L239.25395,201.971607 C239.359419,200.389576 240.712934,199.176685 242.875044,199.176685 C245.019575,199.176685 246.373091,200.336841 246.373091,202.156177 L246.373091,208.475513 L244.922895,208.475513 L244.922895,206.902271 L244.887739,206.902271 C244.342817,207.94817 243.182661,208.633716 241.952192,208.633716 Z" id="в-блоге-Дениса-Лукаш" fill="#3B3B3B"></path>
                <path d="M48.953364,234.821705 L48.953364,211.852076 L44.1461375,211.852076 L44.1461375,221.180006 L33.7994578,221.180006 L33.7994578,211.852076 L28.9922312,211.852076 L28.9922312,234.821705 L33.7994578,234.821705 L33.7994578,225.14358 L44.1461375,225.14358 L44.1461375,234.821705 L48.953364,234.821705 Z M59.2841258,231.733619 C61.3057078,231.733619 62.9770945,230.412427 62.9770945,228.565943 L62.9770945,227.324341 L59.3796336,227.547193 C57.644575,227.674537 56.6576609,228.454517 56.6576609,229.664283 C56.6576609,230.93772 57.7082469,231.733619 59.2841258,231.733619 Z M57.7560008,235.09231 C54.5087351,235.09231 52.04145,232.991138 52.04145,229.91897 C52.04145,226.814966 54.4291453,225.016236 58.679243,224.761549 L62.9770945,224.506861 L62.9770945,223.376685 C62.9770945,221.784888 61.8628367,220.861646 60.1118601,220.861646 C58.3768015,220.861646 57.2784617,221.721216 57.0556101,222.978736 L52.8055125,222.978736 C52.9806101,219.667799 55.7980906,217.391529 60.3187937,217.391529 C64.6962351,217.391529 67.5455515,219.651881 67.5455515,223.090162 L67.5455515,234.821705 L63.0566844,234.821705 L63.0566844,232.211158 L62.9611765,232.211158 C62.0060984,234.025806 59.8890086,235.09231 57.7560008,235.09231 Z M70.8405711,234.821705 L94.2559031,234.821705 L94.2559031,217.757642 L89.6237742,217.757642 L89.6237742,231.303834 L84.8643015,231.303834 L84.8643015,217.757642 L80.2321726,217.757642 L80.2321726,231.303834 L75.4727,231.303834 L75.4727,217.757642 L70.8405711,217.757642 L70.8405711,234.821705 Z M102.135298,234.821705 L108.916352,224.029322 L109.043696,224.029322 L109.043696,234.821705 L113.596235,234.821705 L113.596235,217.757642 L109.043696,217.757642 L102.262641,228.422681 L102.135298,228.422681 L102.135298,217.757642 L97.5827586,217.757642 L97.5827586,234.821705 L102.135298,234.821705 Z M134.5602,234.821705 L139.192329,234.821705 L139.192329,217.757642 L134.5602,217.757642 L134.5602,224.315845 L128.001997,224.315845 L128.001997,217.757642 L123.369868,217.757642 L123.369868,234.821705 L128.001997,234.821705 L128.001997,227.833716 L134.5602,227.833716 L134.5602,234.821705 Z M150.366743,235.187818 C145.209321,235.187818 141.914302,231.876881 141.914302,226.273756 C141.914302,220.75022 145.257075,217.391529 150.366743,217.391529 C155.476411,217.391529 158.819184,220.734302 158.819184,226.273756 C158.819184,231.892799 155.524165,235.187818 150.366743,235.187818 Z M150.366743,231.638111 C152.643012,231.638111 154.091548,229.712037 154.091548,226.289674 C154.091548,222.899146 152.627095,220.941236 150.366743,220.941236 C148.106391,220.941236 146.62602,222.899146 146.62602,226.289674 C146.62602,229.712037 148.074555,231.638111 150.366743,231.638111 Z M168.815669,220.702466 L166.06186,220.702466 L166.06186,224.666041 L168.576899,224.666041 C170.280122,224.666041 171.203364,223.949732 171.203364,222.660377 C171.203364,221.418775 170.343794,220.702466 168.815669,220.702466 Z M168.815669,227.356177 L166.06186,227.356177 L166.06186,231.876881 L169.022602,231.876881 C170.837251,231.876881 171.840083,231.080982 171.840083,229.600611 C171.840083,228.12024 170.789497,227.356177 168.815669,227.356177 Z M161.509321,234.821705 L161.509321,217.757642 L170.05727,217.757642 C173.606977,217.757642 175.739985,219.365357 175.739985,222.055494 C175.739985,223.88606 174.402876,225.477857 172.651899,225.748463 L172.651899,225.875806 C174.928169,226.146412 176.504048,227.738209 176.504048,229.887134 C176.504048,232.879713 174.084516,234.821705 170.21645,234.821705 L161.509321,234.821705 Z M187.121333,235.187818 C181.963911,235.187818 178.668891,231.876881 178.668891,226.273756 C178.668891,220.75022 182.011665,217.391529 187.121333,217.391529 C192.231001,217.391529 195.573774,220.734302 195.573774,226.273756 C195.573774,231.892799 192.278755,235.187818 187.121333,235.187818 Z M187.121333,231.638111 C189.397602,231.638111 190.846137,229.712037 190.846137,226.289674 C190.846137,222.899146 189.381684,220.941236 187.121333,220.941236 C184.860981,220.941236 183.38061,222.899146 183.38061,226.289674 C183.38061,229.712037 184.829145,231.638111 187.121333,231.638111 Z M213.624751,223.583619 C213.179048,220.002076 210.345649,217.391529 205.95229,217.391529 C200.85854,217.391529 197.627192,220.82981 197.627192,226.273756 C197.627192,231.813209 200.85854,235.187818 205.984126,235.187818 C210.313813,235.187818 213.226802,232.768287 213.640669,228.995728 L209.310981,228.995728 C208.913032,230.603443 207.766938,231.542603 206.03188,231.542603 C203.723774,231.542603 202.307075,229.600611 202.307075,226.273756 C202.307075,223.010572 203.723774,221.036744 206.015962,221.036744 C207.782856,221.036744 208.897114,222.103248 209.279145,223.583619 L213.624751,223.583619 Z M229.638227,217.757642 L214.834516,217.757642 L214.834516,221.259595 L219.928266,221.259595 L219.928266,234.821705 L224.560395,234.821705 L224.560395,221.259595 L229.638227,221.259595 L229.638227,217.757642 Z M236.562544,234.821705 L243.343598,224.029322 L243.470942,224.029322 L243.470942,234.821705 L248.023481,234.821705 L248.023481,217.757642 L243.470942,217.757642 L236.689887,228.422681 L236.562544,228.422681 L236.562544,217.757642 L232.010005,217.757642 L232.010005,234.821705 L236.562544,234.821705 Z" id="Наши-новости" fill="#000000"></path>
                <g id="Group-6" transform="translate(0.422895, 0.118789)">
                    <g id="Group-5" transform="translate(0.000000, 47.936558)" fill-rule="nonzero">
                        <g id="pie-chart" transform="translate(53.223835, 52.966574) rotate(-101.000000) translate(-53.223835, -52.966574) translate(8.223835, 7.966574)">
                            <path d="M47.9991166,41.4580839 L89.2970437,41.4580839 C87.7877152,19.3381387 70.1190619,1.66795149 47.9991166,0.160156875 L47.9991166,41.4580839 Z" id="Shape" fill="#F0C419"></path>
                            <path d="M77.6166205,74.67098 C84.2782197,67.4464504 88.5853278,58.0162151 89.2955098,47.5935656 L50.5392061,47.5935656 L77.6166205,74.67098 Z" id="Shape" fill="#71C285"></path>
                            <path d="M41.863635,47.5935656 L41.863635,0.160156875 C18.7298014,1.73697566 0.449133776,20.9901171 0.449133776,44.5258248 C0.449133776,69.0922933 20.3649072,89.0080668 44.9313758,89.0080668 C55.65313,89.0080668 65.4791039,85.205602 73.1561253,78.8860559 L41.863635,47.5935656 Z" id="Shape" fill="#556080"></path>
                        </g>
                        <g id="Group-3" transform="translate(211.697852, 53.461963) rotate(33.000000) translate(-211.697852, -53.461963) translate(171.197852, 20.461963)">
                            <g id="announcement" transform="translate(-0.000000, 0.000000)">
                                <path d="M19.7208779,63.940382 C19.8513535,64.4110746 20.1616075,64.833554 20.6211321,65.0917812 C21.0798395,65.3540943 21.5995626,65.4014904 22.072162,65.2696529 L28.8214805,63.3953264 C29.2943523,63.2648509 29.7132906,62.9573208 29.9734245,62.4964342 C30.2335585,62.0390888 30.2809546,61.5166417 30.151841,61.0459491 L23.585842,37.3892852 L13.1546065,40.2818114 L19.7208779,63.940382 Z" id="Shape" fill="#CEE2F2"></path>
                                <path d="M23.2758604,64.9346112 L22.0716172,65.2693805 C21.8248304,65.3363888 21.5633345,65.357363 21.3072864,65.3208625 L14.2719568,39.9696507 L16.2034854,39.4376699 L23.2758604,64.9346112 Z" id="Shape" fill="#F2F9FF"></path>
                                <path d="M27.682339,52.1499125 L28.0506124,52.048038 C28.5158572,51.9197416 28.9405157,51.6081256 29.2003772,51.151325 C29.4569701,50.6939795 29.5043662,50.1715325 29.3760698,49.7030189 L28.865608,47.8627414 C28.7337704,47.3955899 28.4256956,46.9785584 27.9688949,46.7184244 C27.5107323,46.4561113 26.9885576,46.4087152 26.5197717,46.538646 L26.1544946,46.6405204 L27.682339,52.1499125 Z" id="Shape" fill="#283A4D"></path>
                                <path d="M65.6855948,26.6516092 C65.6855948,32.2754058 61.1238531,36.8325169 55.4997841,36.8325169 C49.8800735,36.8325169 45.3161526,32.2754058 45.3161526,26.6516092 C45.3161526,21.0269955 49.8808906,16.4644366 55.4997841,16.4644366 C61.1235807,16.4644366 65.6855948,21.0269955 65.6855948,26.6516092 Z" id="Shape" fill="#5D6D7E"></path>
                                <g id="Group" transform="translate(66.463545, 10.960485)" fill="#2B7CD9">
                                    <rect id="Rectangle-path" x="1.19198555" y="15.0322089" width="12.233923" height="1.31020349"></rect>
                                    <rect id="Rectangle-path" transform="translate(5.056374, 5.348415) rotate(135.008103) translate(-5.056374, -5.348415) " x="-1.05969937" y="4.69291078" width="12.2321714" height="1.31100811"></rect>
                                    <rect id="Rectangle-path" transform="translate(5.051800, 26.028758) rotate(-134.995949) translate(-5.051800, -26.028758) " x="-1.06765974" y="25.3718132" width="12.2360328" height="1.31382488"></rect>
                                </g>
                                <path d="M34.6931534,13.6773259 L27.481314,13.6773259 L27.481314,39.6011049 L34.6931534,39.6011049 C43.6202426,39.6011049 51.5468375,43.8874587 56.5228869,50.5142011 L56.5228869,2.75987147 C51.5465651,9.38797575 43.6202426,13.6773259 34.6931534,13.6773259 Z" id="Shape" fill="#E1EFFA"></path>
                                <path d="M34.6931534,19.9406979 L27.481314,19.9406979 L27.481314,15.5753505 L34.6931534,15.5753505 C43.6202426,15.5753505 51.5468375,11.2860003 56.5228869,4.65953034 L56.5228869,9.02487778 C51.5465651,15.6535268 43.6202426,19.9406979 34.6931534,19.9406979 Z" id="Shape" fill="#FFFFFF"></path>
                                <path d="M61.9799798,50.5139287 C61.9799798,51.2126131 61.7135808,51.9107527 61.1807829,52.4427334 C60.646623,52.9768933 59.9487558,53.2419303 59.2506162,53.2419303 L59.2506162,53.2419303 C58.5519318,53.2419303 57.8537922,52.9763485 57.3209942,52.4427334 C56.7876515,51.9107527 56.5217973,51.2126131 56.5217973,50.5139287 L56.5217973,2.75987147 C56.5217973,2.06336621 56.7873791,1.36522659 57.3209942,0.829704748 C57.8537922,0.299630736 58.5516594,0.0318698147 59.2506162,0.0318698147 L59.2506162,0.0318698147 C59.9487558,0.0318698147 60.646623,0.299630736 61.1807829,0.829704748 C61.7141256,1.36522659 61.9799798,2.06391099 61.9799798,2.75987147 L61.9799798,50.5139287 Z" id="Shape" fill="#283A4D"></path>
                                <path d="M27.481314,40.2823562 L9.74480872,40.2823562 C7.30009431,40.2823562 4.85728663,39.350777 2.99058714,37.4854395 C1.12606679,35.6192848 0.194215196,33.1753875 0.194215196,30.7304007 L0.194215196,22.544489 C0.194215196,20.0997746 1.12579439,17.6569669 2.99058714,15.7916294 C4.85674185,13.9262918 7.29927713,12.9947126 9.74480872,12.9947126 L27.4818588,12.9947126 L27.4818588,40.2823562 L27.481314,40.2823562 Z" id="Shape" fill="#FF8E31"></path>
                                <path d="M3.02708761,22.318404 C2.9726093,22.318404 2.91894816,22.3148629 2.86392506,22.3031501 C2.34229518,22.2132608 1.99499592,21.7180529 2.08488514,21.1994194 C2.35972824,19.621455 3.10635356,18.184317 4.24522275,17.044903 C5.71450293,15.577802 7.66755054,14.7682542 9.74508111,14.7682542 L15.8842425,14.7682542 C16.4121374,14.7682542 16.8408817,15.1950918 16.8408817,15.7248934 C16.8408817,16.2506092 16.4121374,16.6796259 15.8842425,16.6796259 L9.74508111,16.6796259 C8.1769228,16.6796259 6.70410153,17.2897831 5.59737455,18.3970548 C4.73688955,19.2561779 4.17412855,20.3392068 3.96629378,21.5265617 C3.8845763,21.9915341 3.48170916,22.318404 3.02708761,22.318404 Z" id="Shape" fill="#FFC74E"></path>
                                <path d="M0.194487587,30.7304007 L0.738998353,30.7304007 C1.08983871,30.7304007 1.43768275,30.5985632 1.70408172,30.3329814 C1.9696635,30.0652205 2.10422494,29.7151973 2.10422494,29.3665361 L2.10422494,23.9105328 C2.10422494,23.5605096 1.97020829,23.2104864 1.70408172,22.9440874 C1.43768275,22.6776885 1.09038349,22.544489 0.738998353,22.544489 L0.194487587,22.544489 L0.194487587,30.7304007 Z" id="Shape" fill="#283A4D"></path>
                            </g>
                        </g>
                    </g>
                    <g id="Group-4" transform="translate(36.321553, 0.388148)">
                        <polyline id="Fill-184" fill="#9BCFAC" points="73.8210486 117.829609 90.907407 96.4728292 107.992987 117.829609 90.907407 139.186389 73.8210486 117.829609"></polyline>
                        <polyline id="Fill-205" fill="#3EB5A4" points="56.7362479 139.186389 73.8210486 117.829609 90.9081859 139.186389 73.8210486 160.543168 56.7362479 139.186389"></polyline>
                        <polyline id="Fill-206" fill="#3EB5A4" points="90.9081859 139.186389 107.992987 117.829609 125.079345 139.186389 107.992987 160.543168 90.9081859 139.186389"></polyline>
                        <polyline id="Fill-207" fill="#3EB5A4" points="125.079345 139.186389 142.164925 117.829609 159.251283 139.186389 142.164925 160.543168 125.079345 139.186389"></polyline>
                        <polyline id="Fill-273" fill="#9BCFAC" points="73.8210486 32.3705572 90.907407 11.0137774 107.992987 32.3705572 90.907407 53.7281158 73.8210486 32.3705572"></polyline>
                        <polyline id="Fill-293" fill="#3EB5A4" points="90.9081859 53.7281158 107.992987 32.3705572 125.079345 53.7281158 107.992987 75.0848955 90.9081859 53.7281158"></polyline>
                        <path d="M131.59129,47.4809793 C131.569482,48.3844425 131.41527,49.4304348 131.125539,50.6119466 C130.243105,54.2071071 128.574034,56.5537748 125.502259,57.0140738 C124.54194,60.0803967 123.300457,62.9831617 121.869714,65.6701859 C118.665535,71.7000239 114.52596,76.6527157 110.544491,79.9721642 C107.080956,82.8570156 103.734248,84.5050571 101.21857,84.561913 L101.083051,84.5650284 C100.976349,84.5650284 100.870425,84.561913 100.759829,84.5549034 C100.632098,84.5494514 100.500473,84.5393264 100.368848,84.5245283 C100.276944,84.5175187 100.182703,84.5050571 100.085347,84.4925956 L100.054972,84.4871436 C99.8501351,84.4591051 99.6429616,84.4209416 99.4334516,84.3734319 C99.2971533,84.3453934 99.1569607,84.3111241 99.0159893,84.2745182 C98.9124026,84.2488163 98.8057004,84.2168835 98.7021137,84.1865085 C98.6281232,84.1639219 98.5517961,84.1421142 98.4778056,84.1179699 C98.3952478,84.0922679 98.3119111,84.0665659 98.2293532,84.0361909 C98.1016222,83.994912 97.9723335,83.94896 97.8414871,83.8991137 C97.607054,83.8111039 97.3702843,83.713748 97.126505,83.6101613 C96.6942446,83.4232378 96.2549746,83.207497 95.8086949,82.9660543 C95.6801851,82.8975157 95.5547906,82.8281983 95.4247231,82.7534289 C95.2782997,82.6724288 95.1326552,82.5875344 94.9862319,82.4995246 C94.8538278,82.4216398 94.7183083,82.3375243 94.5851254,82.2526299 C94.4231251,82.1521586 94.2595671,82.0493507 94.0967879,81.9426486 C93.8350951,81.7674079 93.5726235,81.5898306 93.3054788,81.3982341 C93.1621708,81.2985416 93.018084,81.1918395 92.8739972,81.0851374 C92.7750836,81.0134834 92.6800642,80.9418294 92.5803717,80.86706 C92.3700828,80.7066174 92.1566786,80.5415018 91.944832,80.3724918 C91.822553,80.2720205 91.6971585,80.1715491 91.5725429,80.0718567 L91.5678698,80.0656259 L91.5655333,80.0656259 L91.5655333,80.0617316 C91.4222253,79.9464622 91.2781385,79.824962 91.1317152,79.7003464 C90.7150317,79.3459707 90.2952328,78.9705662 89.8769917,78.5803635 C89.7515972,78.4635364 89.6293182,78.3474881 89.5078179,78.2298821 C89.3816446,78.1138338 89.2601444,77.9915547 89.1370865,77.8716122 C89.0132497,77.7508908 88.8909706,77.6286118 88.7686916,77.5032173 C88.644076,77.3809382 88.5217969,77.2555438 88.4002967,77.1278128 C88.1526231,76.8746873 87.908065,76.6153311 87.6681799,76.3520806 C87.4134968,76.0771474 87.1634867,75.7983199 86.9142555,75.5109252 C86.8005437,75.3824153 86.6891685,75.2539055 86.5785721,75.1261745 C86.4570719,74.985203 86.3386871,74.8442316 86.2187446,74.7001448 C85.858917,74.2709998 85.5022048,73.8301721 85.1517234,73.3761039 C85.0520309,73.2483729 84.9515595,73.1198631 84.8549824,72.9913532 C84.657934,72.7327758 84.4601067,72.4695253 84.2630583,72.2008229 C84.1423369,72.0372649 84.0231732,71.8713704 83.9040095,71.7031393 C83.2155083,70.7358106 82.5456993,69.7256453 81.9023712,68.6710856 C81.7793133,68.4740372 81.6609285,68.2769888 81.5448802,68.0776038 C81.1507833,67.4163622 80.7699268,66.7411013 80.3991954,66.0494847 C80.2956086,65.858667 80.196695,65.6670705 80.0954448,65.4770317 C79.8617905,65.0229635 79.6328093,64.5634435 79.4077224,64.0969137 C79.2620779,63.7900478 79.1140968,63.4769511 78.9692312,63.1646332 C78.8547406,62.9083923 78.7386923,62.6513726 78.6249806,62.3920164 C78.5541054,62.2261218 78.4832303,62.0610061 78.4139129,61.8943328 C78.3352493,61.7159767 78.259701,61.5345052 78.1841528,61.3499183 C78.0852392,61.1100332 77.983989,60.8654751 77.8913061,60.6185804 C77.7752578,60.3304068 77.6662192,60.0360024 77.5556228,59.7454923 L77.5299208,59.6761748 C77.427113,59.4012416 77.3281993,59.1224142 77.2308434,58.8443656 L77.2059203,58.7688174 C77.0992181,58.474413 77.0018622,58.1815663 76.9045062,57.8863831 C76.8016984,57.580296 76.7043424,57.2703146 76.6077653,56.9572179 L76.6077653,56.9548814 C76.3047936,56.8917947 76.0158411,56.8139099 75.7409079,56.716554 C75.469869,56.6168615 75.2097339,56.5008132 74.958945,56.3668514 C74.7961658,56.2757263 74.6365021,56.1783703 74.4838479,56.0716682 C74.3452131,55.9782065 74.2135878,55.878514 74.0866357,55.771033 C72.7415659,54.6580598 71.86692,52.8846238 71.3116017,50.6119466 C71.2337169,50.2941768 71.1643995,49.986532 71.1091013,49.6858968 C71.0841782,49.5612812 71.0592551,49.4390021 71.039005,49.3175019 C70.9665722,48.9078281 70.916726,48.5129523 70.8863509,48.1445574 C70.8738894,48.0121533 70.8637643,47.8813069 70.8575336,47.7527971 L70.8544182,47.6811431 C70.8489662,47.5464025 70.845072,47.4124407 70.845072,47.283152 C70.845072,47.058065 70.8544182,46.8399877 70.8684374,46.6328142 L70.8863509,46.4700351 C70.9143894,46.1787461 70.9642357,45.9069283 71.0327743,45.6569182 L71.0724955,45.5159468 L71.1145533,45.3913312 L71.116111,45.3788696 L71.1457072,45.300206 L71.1978899,45.1662442 L71.2461785,45.0564267 L71.3116017,44.9216861 C71.3583326,44.8305609 71.4089576,44.7402146 71.4658135,44.6584356 L71.5491502,44.5330411 C71.6083426,44.4551564 71.667535,44.380387 71.7329582,44.3118484 L71.7500929,44.2962715 L71.8357661,44.2082617 L71.9432471,44.1148 L72.0522858,44.0267902 L72.0647473,44.017444 L72.1714494,43.9457901 L72.2929497,43.8702418 L72.4222384,43.8017033 L72.4237961,43.8017033 L72.6224022,43.7144723 C72.6917196,43.6887704 72.7625948,43.6646261 72.8358064,43.6420395 L73.0110471,43.598424 C73.0998358,43.5766163 73.2003071,43.5641547 73.2984419,43.5485778 L73.3919036,43.5384528 L73.5009423,43.5291066 L73.5048365,43.5291066 L73.558577,43.5267701 L73.6169906,43.5236547 L73.6325675,43.5236547 L73.6325675,43.5197604 L73.7852216,43.5143085 L73.9713662,43.516645 C74.0617125,43.5236547 74.1543954,43.5291066 74.2478571,43.5384528 C74.3452131,43.5485778 74.4449055,43.5610394 74.5492711,43.5766163 L74.5492711,43.5072989 C74.5492711,40.9612461 74.7027041,38.6013379 74.9877623,36.4252377 C75.0142431,36.2024873 75.0469547,35.9805158 75.0804452,35.7616596 C75.1902627,35.0069563 75.3187725,34.2717242 75.4659747,33.5614152 C75.5641095,33.0582796 75.679379,32.5668268 75.7985427,32.0878355 C75.8382639,31.9188256 75.8826582,31.7505945 75.9254948,31.5847 C75.9636583,31.4429497 76.0002642,31.3058725 76.0384277,31.1687954 C76.0976201,30.9429296 76.1630433,30.720958 76.2292454,30.5021018 C76.2658512,30.3704766 76.307909,30.2419667 76.3484091,30.1142357 C76.5921884,29.3322727 76.8577754,28.5806848 77.1506221,27.8649239 C77.202026,27.7301833 77.2549877,27.598558 77.3134012,27.4669328 C77.3585744,27.3578941 77.4029687,27.251192 77.4489207,27.1452687 C77.4878631,27.0580378 77.5244689,26.9692492 77.5657478,26.8851336 C77.6342864,26.7317006 77.7036039,26.5821619 77.7752578,26.4318443 C78.0431814,25.8593913 78.3282396,25.3087461 78.6288748,24.7799086 C78.7075384,24.6389372 78.7885386,24.4979658 78.8726541,24.3601097 L78.8726541,24.353879 C78.9614427,24.210571 79.0486736,24.0664842 79.1359046,23.929407 C79.1896451,23.8406184 79.2426067,23.7526086 79.2979049,23.6684931 C79.3695589,23.5571179 79.4435494,23.4465215 79.5144245,23.3374828 C79.5673861,23.2564827 79.624242,23.1778191 79.6772037,23.0968189 C79.7550884,22.983886 79.8368674,22.8678378 79.9186464,22.7556837 C80.1203679,22.4706255 80.3275414,22.1925769 80.5409456,21.9269899 C80.641417,21.79848 80.7411095,21.6762009 80.840802,21.5539219 C80.9412733,21.4324216 81.04486,21.3101426 81.1468891,21.1917577 C81.2753989,21.0437767 81.4015722,20.9004687 81.5300821,20.7626127 C81.6134188,20.6722664 81.6959766,20.5819201 81.7793133,20.4931315 C82.1212274,20.1340827 82.4717088,19.7898321 82.8307575,19.4611584 C82.9242193,19.376264 83.0184598,19.2921485 83.1150369,19.2080329 C83.2194025,19.1169078 83.3214315,19.0257826 83.4289125,18.9385517 C83.6750283,18.7290417 83.9234807,18.5288778 84.1758273,18.3349448 C84.3347122,18.2126657 84.4982702,18.0903866 84.6610494,17.9751172 L84.7677515,17.899569 C84.913396,17.7944246 85.0652713,17.6908378 85.21481,17.5895876 L85.3955027,17.4688663 C85.5247914,17.383193 85.6564166,17.2990775 85.7880418,17.2180773 C85.8628112,17.1705676 85.9375806,17.1230579 86.0162442,17.0771059 C86.4134565,16.8325478 86.8207937,16.6051243 87.2359195,16.3854893 C87.4025929,16.2982583 87.570824,16.2141428 87.7367185,16.1323638 L87.8239494,16.0918637 C88.0178825,15.9945078 88.2125944,15.9041615 88.4096428,15.8161517 L88.4610468,15.7912286 C88.6619894,15.7001034 88.8629321,15.6159878 89.0662113,15.5310935 C89.5078179,15.3465066 89.9540976,15.1782755 90.4081657,15.0209483 L90.4214061,15.0154964 C90.6457143,14.9376116 90.8723589,14.8620634 91.1036766,14.7896306 C91.331879,14.7179766 91.5655333,14.6463226 91.8007452,14.5801206 C92.2703903,14.4453799 92.742372,14.3238797 93.2236998,14.2140622 C93.483056,14.1548698 93.7470854,14.0980139 94.0126724,14.0450523 C94.2338651,13.9991003 94.4597309,13.9570425 94.6848179,13.9173213 C95.358521,13.7950422 96.0392338,13.6953497 96.7339659,13.6159072 C98.1460165,13.4601377 99.6009038,13.382253 101.083051,13.382253 L101.21857,13.382253 C111.838936,13.4165223 120.988059,17.3863084 125.17748,28.2675881 C126.394819,31.4219208 127.188464,35.1572739 127.485984,39.54608 C127.573215,40.8109285 127.614494,42.1341906 127.614494,43.5072989 L127.614494,43.6264626 C127.707956,43.6077702 127.802196,43.5921933 127.891764,43.5789529 C128.014822,43.5610394 128.136322,43.5446836 128.25237,43.5353374 L128.271841,43.5353374 L128.452534,43.5236547 C128.571698,43.516645 128.683852,43.516645 128.797563,43.5236547 C129.574853,43.5509143 130.194816,43.8017033 130.651221,44.2620022 C130.721317,44.3305408 130.78674,44.4053101 130.849827,44.4839737 C130.912135,44.5618585 130.968212,44.6467529 131.020394,44.7339838 C131.426174,45.3967831 131.620107,46.3197175 131.59129,47.4809793" id="Fill-311" fill="#F5DBB0"></path>
                        <path d="M100.457636,84.5338745 C100.42804,84.5307591 100.398444,84.5276437 100.368848,84.5245283 C100.276944,84.5175187 100.182703,84.5050571 100.085347,84.4925956 L100.054972,84.4871436 C99.8501351,84.4591051 99.6429616,84.4209416 99.4334516,84.3734319 C99.2971533,84.3453934 99.1569607,84.3111241 99.0159893,84.2745182 C98.9124026,84.2488163 98.8057004,84.2168835 98.7021137,84.1865085 C98.6281232,84.1639219 98.5517961,84.1421142 98.4778056,84.1179699 C98.3952478,84.0922679 98.3119111,84.0665659 98.2293532,84.0361909 C98.1016222,83.994912 97.9723335,83.94896 97.8414871,83.8991137 C97.607054,83.8111039 97.3702843,83.713748 97.126505,83.6101613 C96.6942446,83.4232378 96.2549746,83.207497 95.8086949,82.9660543 C95.6801851,82.8975157 95.5547906,82.8281983 95.4247231,82.7534289 C95.2782997,82.6724288 95.1326552,82.5875344 94.9862319,82.4995246 C94.8538278,82.4216398 94.7183083,82.3375243 94.5851254,82.2526299 C94.4231251,82.1521586 94.2595671,82.0493507 94.0967879,81.9426486 C93.8350951,81.7674079 93.5726235,81.5898306 93.3054788,81.3982341 C93.1621708,81.2985416 93.018084,81.1918395 92.8739972,81.0851374 C92.7750836,81.0134834 92.6800642,80.9418294 92.5803717,80.86706 C92.3700828,80.7066174 92.1566786,80.5415018 91.944832,80.3724918 C91.8638319,80.3078475 91.7828317,80.2416454 91.7018316,80.1746645 C91.7836106,80.2408666 91.8646107,80.3062898 91.944832,80.3724918 C92.1566786,80.5415018 92.3700828,80.7066174 92.5803717,80.86706 C92.6800642,80.9418294 92.7750836,81.0134834 92.8739972,81.0851374 C93.018084,81.1918395 93.1621708,81.2985416 93.3054788,81.3982341 C93.5726235,81.5898306 93.8350951,81.7674079 94.0967879,81.9426486 C94.2595671,82.0493507 94.4231251,82.1521586 94.5851254,82.2526299 C94.7183083,82.3375243 94.8538278,82.4216398 94.9862319,82.4995246 C95.1326552,82.5875344 95.2782997,82.6724288 95.4247231,82.7534289 C95.5547906,82.8281983 95.6801851,82.8975157 95.8086949,82.9660543 C96.2549746,83.207497 96.6942446,83.4232378 97.126505,83.6101613 C97.3702843,83.713748 97.607054,83.8111039 97.8414871,83.8991137 C97.9723335,83.94896 98.1016222,83.994912 98.2293532,84.0361909 C98.3119111,84.0665659 98.3952478,84.0922679 98.4778056,84.1179699 C98.5517961,84.1421142 98.6281232,84.1639219 98.7021137,84.1865085 C98.8057004,84.2168835 98.9124026,84.2488163 99.0159893,84.2745182 C99.1569607,84.3111241 99.2971533,84.3453934 99.4334516,84.3734319 C99.6429616,84.4209416 99.8501351,84.4591051 100.054972,84.4871436 L100.085347,84.4925956 C100.182703,84.5050571 100.276944,84.5175187 100.368848,84.5245283 C100.398444,84.5276437 100.42804,84.5307591 100.457636,84.5338745" id="Fill-312" fill="#B8DBBF"></path>
                        <path d="M80.6624459,66.5339279 C80.5744361,66.3734853 80.4864263,66.2122638 80.3991954,66.0494847 C80.2956086,65.858667 80.196695,65.6670705 80.0954448,65.4770317 C79.8617905,65.0229635 79.6328093,64.5634435 79.4077224,64.0969137 C79.2620779,63.7900478 79.1140968,63.4769511 78.9692312,63.1646332 C78.8547406,62.9083923 78.7386923,62.6513726 78.6249806,62.3920164 C78.5541054,62.2261218 78.4832303,62.0610061 78.4139129,61.8943328 C78.3352493,61.7159767 78.259701,61.5345052 78.1841528,61.3499183 C78.0852392,61.1100332 77.983989,60.8654751 77.8913061,60.6185804 C77.7752578,60.3304068 77.6662192,60.0360024 77.5556228,59.7454923 L77.5299208,59.6761748 C77.427113,59.4012416 77.3281993,59.1224142 77.2308434,58.8443656 L77.2059203,58.7688174 C77.0992181,58.474413 77.0018622,58.1815663 76.9045062,57.8863831 C76.8016984,57.580296 76.7043424,57.2703146 76.6077653,56.9572179 C76.3047936,56.8980255 76.0158411,56.8170253 75.7409079,56.716554 C75.469869,56.6199769 75.2097339,56.5031497 74.958945,56.3668514 C74.7961658,56.2757263 74.6365021,56.1783703 74.4838479,56.0716682 C74.3452131,55.9782065 74.2135878,55.878514 74.0866357,55.771033 C72.7415659,54.6580598 71.86692,52.8846238 71.3116017,50.6119466 C71.2337169,50.2941768 71.1643995,49.986532 71.1091013,49.6858968 C71.0841782,49.5612812 71.0592551,49.4390021 71.039005,49.3175019 C70.9665722,48.9078281 70.916726,48.5129523 70.8863509,48.1445574 C70.8738894,48.0121533 70.8637643,47.8813069 70.8575336,47.7527971 L70.8544182,47.6811431 C70.8489662,47.5464025 70.845072,47.4124407 70.845072,47.283152 C70.845072,47.4124407 70.8489662,47.5464025 70.8544182,47.6811431 L70.8575336,47.7527971 C70.8637643,47.8813069 70.8738894,48.0121533 70.8863509,48.1445574 C70.916726,48.5129523 70.9665722,48.9078281 71.039005,49.3175019 C71.0592551,49.4390021 71.0841782,49.5612812 71.1091013,49.6858968 C71.1643995,49.986532 71.2337169,50.2941768 71.3116017,50.6119466 C71.86692,52.8846238 72.7415659,54.6580598 74.0866357,55.771033 C74.2135878,55.878514 74.3452131,55.9782065 74.4838479,56.0716682 C74.6365021,56.1783703 74.7961658,56.2757263 74.958945,56.3668514 C75.2097339,56.5008132 75.469869,56.6168615 75.7409079,56.716554 C76.0158411,56.8139099 76.3047936,56.8917947 76.6077653,56.9548814 L76.6077653,56.9572179 C76.7043424,57.2703146 76.8016984,57.580296 76.9045062,57.8863831 C77.0018622,58.1815663 77.0992181,58.474413 77.2059203,58.7688174 L77.2308434,58.8443656 C77.3281993,59.1224142 77.427113,59.4012416 77.5299208,59.6761748 L77.5556228,59.7454923 C77.6662192,60.0360024 77.7752578,60.3304068 77.8913061,60.6185804 C77.983989,60.8654751 78.0852392,61.1100332 78.1841528,61.3499183 C78.259701,61.5345052 78.3352493,61.7159767 78.4139129,61.8943328 C78.4832303,62.0610061 78.5541054,62.2261218 78.6249806,62.3920164 C78.7386923,62.6513726 78.8547406,62.9083923 78.9692312,63.1646332 C79.1140968,63.4769511 79.2620779,63.7900478 79.4077224,64.0969137 C79.6328093,64.5634435 79.8617905,65.0229635 80.0954448,65.4770317 C80.196695,65.6670705 80.2956086,65.858667 80.3991954,66.0494847 C80.4864263,66.2122638 80.5744361,66.3734853 80.6624459,66.5339279" id="Fill-313" fill="#76C4B4"></path>
                        <polyline id="Fill-314" fill="#76C4B4" points="73.6325675 43.5236547 73.6169906 43.5236547 73.6325675 43.5197604 73.6325675 43.5236547"></polyline>
                        <path d="M101.083051,84.5650284 C100.976349,84.5650284 100.870425,84.561913 100.759829,84.5549034 C100.660915,84.5510091 100.559665,84.5439995 100.457636,84.5338745 C100.42804,84.5307591 100.398444,84.5276437 100.368848,84.5245283 C100.276944,84.5175187 100.182703,84.5050571 100.085347,84.4925956 L100.054972,84.4871436 C99.8501351,84.4591051 99.6429616,84.4209416 99.4334516,84.3734319 C99.2971533,84.3453934 99.1569607,84.3111241 99.0159893,84.2745182 C98.9124026,84.2488163 98.8057004,84.2168835 98.7021137,84.1865085 C98.6281232,84.1639219 98.5517961,84.1421142 98.4778056,84.1179699 C98.3952478,84.0922679 98.3119111,84.0665659 98.2293532,84.0361909 C98.1016222,83.994912 97.9723335,83.94896 97.8414871,83.8991137 C97.607054,83.8111039 97.3702843,83.713748 97.126505,83.6101613 C96.6942446,83.4232378 96.2549746,83.207497 95.8086949,82.9660543 C95.6801851,82.8975157 95.5547906,82.8281983 95.4247231,82.7534289 C95.2782997,82.6724288 95.1326552,82.5875344 94.9862319,82.4995246 C94.8538278,82.4216398 94.7183083,82.3375243 94.5851254,82.2526299 C94.4231251,82.1521586 94.2595671,82.0493507 94.0967879,81.9426486 C93.8350951,81.7674079 93.5726235,81.5898306 93.3054788,81.3982341 C93.1621708,81.2985416 93.018084,81.1918395 92.8739972,81.0851374 C92.7750836,81.0134834 92.6800642,80.9418294 92.5803717,80.86706 C92.3700828,80.7066174 92.1566786,80.5415018 91.944832,80.3724918 C91.8646107,80.3062898 91.7836106,80.2408666 91.7018316,80.1746645 C91.6574373,80.1388375 91.613043,80.1022317 91.5678698,80.0656259 L91.5655333,80.0656259 L91.5655333,80.0617316 C91.4222253,79.9464622 91.2781385,79.824962 91.1317152,79.7003464 C90.7150317,79.3459707 90.2952328,78.9705662 89.8769917,78.5803635 C89.7515972,78.4635364 89.6293182,78.3474881 89.5078179,78.2298821 C89.3816446,78.1138338 89.2601444,77.9915547 89.1370865,77.8716122 C89.0132497,77.7508908 88.8909706,77.6286118 88.7686916,77.5032173 C88.644076,77.3809382 88.5217969,77.2555438 88.4002967,77.1278128 C88.1526231,76.8746873 87.908065,76.6153311 87.6681799,76.3520806 C87.4134968,76.0771474 87.1634867,75.7983199 86.9142555,75.5109252 C86.8005437,75.3824153 86.6891685,75.2539055 86.5785721,75.1261745 C86.4570719,74.985203 86.3386871,74.8442316 86.2187446,74.7001448 C85.858917,74.2709998 85.5022048,73.8301721 85.1517234,73.3761039 C85.0520309,73.2483729 84.9515595,73.1198631 84.8549824,72.9913532 C84.657934,72.7327758 84.4601067,72.4695253 84.2630583,72.2008229 C84.1423369,72.0372649 84.0231732,71.8713704 83.9040095,71.7031393 C83.2155083,70.7358106 82.5456993,69.7256453 81.9023712,68.6710856 C81.7793133,68.4740372 81.6609285,68.2769888 81.5448802,68.0776038 C81.2434662,67.5713528 80.9498406,67.0573134 80.6624459,66.5339279 C80.5744361,66.3734853 80.4864263,66.2122638 80.3991954,66.0494847 C80.2956086,65.858667 80.196695,65.6670705 80.0954448,65.4770317 C79.8617905,65.0229635 79.6328093,64.5634435 79.4077224,64.0969137 C79.2620779,63.7900478 79.1140968,63.4769511 78.9692312,63.1646332 C78.8547406,62.9083923 78.7386923,62.6513726 78.6249806,62.3920164 C78.5541054,62.2261218 78.4832303,62.0610061 78.4139129,61.8943328 C78.3352493,61.7159767 78.259701,61.5345052 78.1841528,61.3499183 C78.0852392,61.1100332 77.983989,60.8654751 77.8913061,60.6185804 C77.7752578,60.3304068 77.6662192,60.0360024 77.5556228,59.7454923 L77.5299208,59.6761748 C77.427113,59.4012416 77.3281993,59.1224142 77.2308434,58.8443656 L77.2059203,58.7688174 C77.0992181,58.474413 77.0018622,58.1815663 76.9045062,57.8863831 C76.8016984,57.580296 76.7043424,57.2703146 76.6077653,56.9572179 L76.6077653,56.9548814 C76.3047936,56.8917947 76.0158411,56.8139099 75.7409079,56.716554 C75.469869,56.6168615 75.2097339,56.5008132 74.958945,56.3668514 C74.7961658,56.2757263 74.6365021,56.1783703 74.4838479,56.0716682 C74.3452131,55.9782065 74.2135878,55.878514 74.0866357,55.771033 C72.7415659,54.6580598 71.86692,52.8846238 71.3116017,50.6119466 C71.2337169,50.2941768 71.1643995,49.986532 71.1091013,49.6858968 C71.0841782,49.5612812 71.0592551,49.4390021 71.039005,49.3175019 C70.9665722,48.9078281 70.916726,48.5129523 70.8863509,48.1445574 C70.8738894,48.0121533 70.8637643,47.8813069 70.8575336,47.7527971 L70.8544182,47.6811431 C70.8489662,47.5464025 70.845072,47.4124407 70.845072,47.283152 C70.845072,47.058065 70.8544182,46.8399877 70.8684374,46.6328142 L70.8863509,46.4700351 C70.9143894,46.1787461 70.9642357,45.9069283 71.0327743,45.6569182 L71.0724955,45.5159468 L71.1145533,45.3913312 L71.116111,45.3788696 L71.1457072,45.300206 L71.1978899,45.1662442 L71.2461785,45.0564267 L71.3116017,44.9216861 C71.3583326,44.8305609 71.4089576,44.7402146 71.4658135,44.6584356 L71.5491502,44.5330411 C71.6083426,44.4551564 71.667535,44.380387 71.7329582,44.3118484 L71.7500929,44.2962715 L71.8357661,44.2082617 L71.9432471,44.1148 L72.0522858,44.0267902 L72.0647473,44.017444 L72.1714494,43.9457901 L72.2929497,43.8702418 L72.4222384,43.8017033 L72.4237961,43.8017033 L72.6224022,43.7144723 C72.6917196,43.6887704 72.7625948,43.6646261 72.8358064,43.6420395 L73.0110471,43.598424 C73.0998358,43.5766163 73.2003071,43.5641547 73.2984419,43.5485778 L73.3919036,43.5384528 L73.5009423,43.5291066 L73.5048365,43.5291066 L73.558577,43.5267701 L73.5757116,43.5267701 L73.6169906,43.5236547 L73.6325675,43.5236547 L73.6325675,43.5197604 L73.7852216,43.5143085 L73.9713662,43.516645 C74.0617125,43.5236547 74.1543954,43.5291066 74.2478571,43.5384528 C74.3452131,43.5485778 74.4449055,43.5610394 74.5492711,43.5766163 L74.5492711,43.5072989 C74.5492711,40.9612461 74.7027041,38.6013379 74.9877623,36.4252377 C75.0142431,36.2024873 75.0469547,35.9805158 75.0804452,35.7616596 C75.1902627,35.0069563 75.3187725,34.2717242 75.4659747,33.5614152 C75.5641095,33.0582796 75.679379,32.5668268 75.7985427,32.0878355 C75.8382639,31.9188256 75.8826582,31.7505945 75.9254948,31.5847 C75.9636583,31.4429497 76.0002642,31.3058725 76.0384277,31.1687954 C76.0976201,30.9429296 76.1630433,30.720958 76.2292454,30.5021018 C76.2658512,30.3704766 76.307909,30.2419667 76.3484091,30.1142357 C76.5921884,29.3322727 76.8577754,28.5806848 77.1506221,27.8649239 C77.202026,27.7301833 77.2549877,27.598558 77.3134012,27.4669328 C77.3585744,27.3578941 77.4029687,27.251192 77.4489207,27.1452687 C77.4878631,27.0580378 77.5244689,26.9692492 77.5657478,26.8851336 C77.6342864,26.7317006 77.7036039,26.5821619 77.7752578,26.4318443 C78.0431814,25.8593913 78.3282396,25.3087461 78.6288748,24.7799086 C78.7075384,24.6389372 78.7885386,24.4979658 78.8726541,24.3601097 L78.8726541,24.353879 C78.9614427,24.210571 79.0486736,24.0664842 79.1359046,23.929407 C79.1896451,23.8406184 79.2426067,23.7526086 79.2979049,23.6684931 C79.3695589,23.5571179 79.4435494,23.4465215 79.5144245,23.3374828 C79.5673861,23.2564827 79.624242,23.1778191 79.6772037,23.0968189 C79.7550884,22.983886 79.8368674,22.8678378 79.9186464,22.7556837 C80.1203679,22.4706255 80.3275414,22.1925769 80.5409456,21.9269899 C80.641417,21.79848 80.7411095,21.6762009 80.840802,21.5539219 C80.9412733,21.4324216 81.04486,21.3101426 81.1468891,21.1917577 C81.2753989,21.0437767 81.4015722,20.9004687 81.5300821,20.7626127 C81.6134188,20.6722664 81.6959766,20.5819201 81.7793133,20.4931315 C82.1212274,20.1340827 82.4717088,19.7898321 82.8307575,19.4611584 C82.9242193,19.376264 83.0184598,19.2921485 83.1150369,19.2080329 C83.2194025,19.1169078 83.3214315,19.0257826 83.4289125,18.9385517 C83.6750283,18.7290417 83.9234807,18.5288778 84.1758273,18.3349448 C84.3347122,18.2126657 84.4982702,18.0903866 84.6610494,17.9751172 L84.7677515,17.899569 C84.913396,17.7944246 85.0652713,17.6908378 85.21481,17.5895876 L85.3955027,17.4688663 C85.5247914,17.383193 85.6564166,17.2990775 85.7880418,17.2180773 C85.8628112,17.1705676 85.9375806,17.1230579 86.0162442,17.0771059 C86.4134565,16.8325478 86.8207937,16.6051243 87.2359195,16.3854893 C87.4025929,16.2982583 87.570824,16.2141428 87.7367185,16.1323638 L87.8239494,16.0918637 C88.0178825,15.9945078 88.2125944,15.9041615 88.4096428,15.8161517 L88.4610468,15.7912286 C88.6619894,15.7001034 88.8629321,15.6159878 89.0662113,15.5310935 C89.5078179,15.3465066 89.9540976,15.1782755 90.4081657,15.0209483 L90.4214061,15.0154964 C90.6457143,14.9376116 90.8723589,14.8620634 91.1036766,14.7896306 C91.331879,14.7179766 91.5655333,14.6463226 91.8007452,14.5801206 C92.2703903,14.4453799 92.742372,14.3238797 93.2236998,14.2140622 C93.483056,14.1548698 93.7470854,14.0980139 94.0126724,14.0450523 C94.2338651,13.9991003 94.4597309,13.9570425 94.6848179,13.9173213 C95.358521,13.7950422 96.0392338,13.6953497 96.7339659,13.6159072 C98.1460165,13.4601377 99.6009038,13.382253 101.083051,13.382253 L101.21857,13.382253 L101.21857,84.561913 L101.083051,84.5650284" id="Fill-315" fill="#F8E4C1"></path>
                        <path d="M110.544491,79.9721642 L110.544491,95.6394623 C110.544491,95.6394623 97.6444387,90.8347515 91.5725429,80.0718567 C91.6971585,80.1715491 91.8233318,80.2720205 91.944832,80.3724918 C92.1566786,80.5415018 92.3700828,80.7073963 92.5803717,80.86706 C92.6800642,80.9418294 92.7750836,81.0134834 92.8739972,81.0851374 C93.018084,81.1918395 93.1621708,81.2985416 93.3054788,81.3982341 C93.5726235,81.5898306 93.8350951,81.7674079 94.0967879,81.9426486 C94.2595671,82.0493507 94.4231251,82.1521586 94.5851254,82.2526299 C94.7183083,82.3375243 94.8538278,82.4216398 94.9862319,82.4995246 C95.1334341,82.5875344 95.2782997,82.6724288 95.4247231,82.7534289 C95.5555695,82.8281983 95.6801851,82.8975157 95.8086949,82.9660543 C96.2549746,83.207497 96.6942446,83.4232378 97.126505,83.6109401 C97.3702843,83.713748 97.607054,83.8111039 97.8414871,83.8991137 C97.9723335,83.94896 98.1016222,83.994912 98.2293532,84.0361909 C98.3119111,84.0665659 98.3952478,84.0922679 98.4778056,84.1179699 C98.5517961,84.1421142 98.6281232,84.1639219 98.7028926,84.1865085 C98.8057004,84.2168835 98.9124026,84.2488163 99.0159893,84.2745182 C99.1569607,84.3111241 99.2971533,84.3453934 99.4334516,84.3742107 C99.6437405,84.4209416 99.8501351,84.4591051 100.054972,84.4871436 L100.085347,84.4925956 C100.182703,84.5050571 100.276944,84.5175187 100.368848,84.5245283 C100.500473,84.5393264 100.632098,84.5494514 100.759829,84.5549034 C100.870425,84.561913 100.976349,84.5650284 101.083051,84.5650284 L101.21857,84.561913 C103.734248,84.5050571 107.080956,82.8570156 110.544491,79.9721642" id="Fill-316" fill="#F4D3A7"></path>
                        <path d="M119.937393,98.2781979 C120.005153,98.793795 81.8758904,98.4581117 81.8758904,98.4581117 L91.561639,95.6246642 L91.561639,80.070299 L91.5725429,80.070299 C94.6084908,85.445905 99.3555668,89.3424795 103.330805,91.884638 C107.317726,94.4377004 110.542934,95.635568 110.542934,95.635568 L110.542934,95.6246642 L110.553837,95.6246642 L119.937393,98.2781979" id="Fill-317" fill="#F5DBB0"></path>
                        <path d="M137.923321,103.342265 L133.536072,102.107013 L125.318451,99.7922776 L125.318451,99.7883834 L119.942845,98.2618421 L119.942845,98.2743037 C120.008268,98.7969104 81.8704385,98.4557752 81.8704385,98.4557752 L76.4956113,100.023595 L69.6378582,102.022897 L64.1804732,103.614862 C60.0767252,104.810393 56.7432575,109.249045 56.7432575,113.529591 L56.7432575,144.819014 L145.37845,144.819014 L145.37845,113.188456 C145.37845,108.90791 142.040309,104.500411 137.923321,103.342265" id="Fill-318" fill="#E77F75"></path>
                        <path d="M86.6385434,97.0639745 C86.6385434,97.0639745 86.7031878,97.2563499 86.8231303,97.6153986 C86.9438517,97.9744473 87.1377847,98.4962752 87.3761121,99.1575168 C87.6198914,99.8195373 87.9329881,100.613183 88.2959311,101.519762 C88.6674414,102.421667 89.1113845,103.427938 89.6184143,104.506642 C90.1332325,105.581452 90.7345029,106.720906 91.4175522,107.885283 C92.10839,109.043429 92.910603,110.21248 93.8389894,111.303645 C94.7704911,112.391695 95.8437431,113.396408 97.0595242,114.149554 C97.6794868,114.496141 98.3134688,114.82793 98.9934027,115.014854 C99.3220764,115.141806 99.6733367,115.182306 100.014472,115.262527 C100.184261,115.30147 100.362617,115.298354 100.538636,115.319383 L100.798771,115.344306 L100.931176,115.357547 L100.946752,115.359104 C100.818243,115.358326 100.921829,115.358326 100.899243,115.358326 L100.936627,115.356768 L101.011397,115.35521 C101.401599,115.34197 101.86112,115.361441 102.130601,115.290566 C102.28637,115.262527 102.437467,115.256297 102.602582,115.216575 L103.101045,115.082613 C103.270055,115.048344 103.429719,114.97669 103.591719,114.912825 C103.749825,114.846623 103.915719,114.797555 104.074604,114.720449 C104.38147,114.552218 104.704692,114.419814 104.995981,114.212641 C105.143183,114.114506 105.295059,114.02416 105.440703,113.923688 L105.862838,113.594236 L106.075464,113.433793 L106.277185,113.253101 L106.678292,112.895609 C106.933754,112.641705 107.186101,112.384685 107.431438,112.119877 C107.660419,111.840271 107.913544,111.586367 108.126948,111.298193 C109.016392,110.171979 109.787451,108.982679 110.449472,107.80584 C111.101367,106.62355 111.673041,105.469298 112.168389,104.382026 C112.651274,103.292419 113.076525,102.278359 113.433237,101.369444 C113.782161,100.457413 114.083575,99.6567581 114.31645,98.9924011 C114.54621,98.3272653 114.73547,97.8031009 114.849961,97.4424944 C114.966788,97.081888 115.030653,96.8895127 115.030653,96.8895127 C115.030653,96.8895127 115.017413,97.092013 114.973019,97.4697541 C114.927067,97.8467163 114.861644,98.4012558 114.739364,99.1014398 C114.619422,99.8016238 114.465989,100.652125 114.23545,101.617118 C114.008027,102.582889 113.725305,103.669381 113.339775,104.835316 C112.964371,106.002029 112.507966,107.258311 111.906696,108.546525 C111.310877,109.835517 110.603684,111.176693 109.676855,112.468022 C108.76093,113.759351 107.61914,115.020306 106.150233,115.995423 C105.798194,116.255558 105.389299,116.447154 104.999096,116.665232 C104.798933,116.767261 104.583971,116.844367 104.374461,116.933155 C104.164172,117.01805 103.955441,117.107617 103.731911,117.160579 L103.067554,117.342829 C102.842468,117.397349 102.589342,117.42305 102.349457,117.460435 C101.826071,117.550782 101.474032,117.526637 101.059685,117.543772 L100.983358,117.54533 L100.945974,117.546108 L100.8603,117.546108 L100.839272,117.542993 L100.669483,117.528195 L100.329905,117.494704 C100.105597,117.466666 99.8766159,117.461214 99.6554232,117.412147 C99.2130377,117.311675 98.762085,117.243916 98.3391707,117.084252 C98.1265454,117.011819 97.9092469,116.947175 97.7005157,116.865396 L97.0914569,116.587347 C96.9909856,116.539837 96.8881777,116.495443 96.7900429,116.444818 L96.503427,116.279702 L95.9340894,115.948692 C95.2136554,115.46347 94.5313849,114.937748 93.9456915,114.345824 C93.7992681,114.198621 93.6442775,114.056871 93.5056426,113.906554 C93.3662289,113.754678 93.2307094,113.602024 93.0936322,113.450928 C92.8116894,113.154966 92.5811505,112.827071 92.3295827,112.517868 C91.3583598,111.259251 90.6168969,109.934431 89.9860303,108.661015 C89.3497119,107.388378 88.8644898,106.141443 88.4602679,104.98096 C88.0498152,103.82515 87.7484012,102.742552 87.5046219,101.779897 C87.2546119,100.818799 87.0887173,99.9706337 86.9570921,99.2720074 C86.8231303,98.5749388 86.7545917,98.0203994 86.7031878,97.6434371 C86.6541204,97.2664749 86.6385434,97.0639745 86.6385434,97.0639745" id="Fill-319" fill="#E8A34F"></path>
                        <path d="M104.298134,120.786114 C104.298134,123.174061 102.851035,125.108719 101.06358,125.108719 C99.2761244,125.108719 97.826689,123.174061 97.826689,120.786114 C97.826689,118.399725 99.2761244,116.464289 101.06358,116.464289 C102.851035,116.464289 104.298134,118.399725 104.298134,120.786114" id="Fill-320" fill="#F5EC96"></path>
                        <path d="M102.836237,119.779064 C102.836237,121.087528 102.04337,122.14754 101.064358,122.14754 C100.083789,122.14754 99.288586,121.087528 99.288586,119.779064 C99.288586,118.470601 100.083789,117.410589 101.064358,117.410589 C102.04337,117.410589 102.836237,118.470601 102.836237,119.779064" id="Fill-321" fill="#007F42"></path>
                        <path d="M97.6701407,118.43711 C97.4061113,120.244036 96.0937531,121.547827 94.7385583,121.349221 C93.3864789,121.149836 92.5040446,119.523602 92.7704105,117.717455 C93.0359975,115.90975 94.3499134,114.60518 95.7019928,114.803786 C97.0548511,115.003171 97.9365065,116.630184 97.6701407,118.43711" id="Fill-322" fill="#F5EC96"></path>
                        <path d="M96.6755523,117.51106 C96.5299078,118.501754 95.8118103,119.215958 95.0695686,119.107698 C94.3273268,118.998659 93.8452202,118.107658 93.9908647,117.117742 C94.137288,116.126269 94.8561643,115.412066 95.5976272,115.521105 C96.3383113,115.630143 96.8204179,116.520366 96.6755523,117.51106" id="Fill-323" fill="#007F42"></path>
                        <path d="M93.207344,114.510939 C92.7088815,116.268798 91.2384173,117.391118 89.921386,117.017271 C88.6066913,116.644203 87.943892,114.916719 88.4439121,113.159639 C88.9415957,111.402559 90.4128388,110.27946 91.7275336,110.653307 C93.043786,111.026375 93.7065853,112.755417 93.207344,114.510939" id="Fill-324" fill="#F5EC96"></path>
                        <path d="M92.3412655,113.463389 C92.0671111,114.426824 91.2625615,115.042113 90.5405698,114.838055 C89.819357,114.63244 89.456414,113.68614 89.7305683,112.722705 C90.003165,111.760829 90.8092722,111.146318 91.5304851,111.350376 C92.2509191,111.554434 92.6138621,112.501513 92.3412655,113.463389" id="Fill-325" fill="#007F42"></path>
                        <path d="M109.925307,117.01104 C110.216596,118.814072 109.35597,120.452768 108.006227,120.670066 C106.656484,120.887365 105.326212,119.601487 105.034923,117.798455 C104.745971,115.994644 105.605819,114.355949 106.954783,114.13865 C108.305304,113.922131 109.636355,115.208008 109.925307,117.01104" id="Fill-326" fill="#F5EC96"></path>
                        <path d="M108.699401,116.427683 C108.858286,117.415262 108.386305,118.314052 107.647178,118.433216 C106.907273,118.551601 106.177493,117.847522 106.018608,116.859165 C105.860502,115.870807 106.330926,114.972796 107.07161,114.853632 C107.809957,114.734469 108.539738,115.439326 108.699401,116.427683" id="Fill-327" fill="#007F42"></path>
                        <path d="M113.930142,111.801329 C114.687182,113.479745 114.281402,115.299133 113.0259,115.866134 C111.76884,116.432356 110.137933,115.532009 109.380893,113.855929 C108.623853,112.177512 109.028075,110.357345 110.284356,109.791123 C111.53908,109.224122 113.173881,110.12447 113.930142,111.801329" id="Fill-328" fill="#F5EC96"></path>
                        <path d="M112.582735,111.558328 C112.997082,112.477368 112.776669,113.474293 112.087388,113.785053 C111.398108,114.095035 110.503991,113.602024 110.089644,112.682984 C109.67374,111.763165 109.895711,110.764682 110.584213,110.45548 C111.272714,110.14472 112.168389,110.638509 112.582735,111.558328" id="Fill-329" fill="#007F42"></path>
                        <path d="M100.962329,98.5609196 C95.8733393,98.5507946 90.7820126,98.5211984 87.136227,98.4962752 C90.7975895,98.5211984 95.8865797,98.5500157 100.962329,98.5601407" id="Fill-330" fill="#F6E0BB"></path>
                        <path d="M100.962329,105.907789 L90.3209348,105.907789 C90.0717036,105.431134 89.8372705,104.963047 89.6184143,104.506642 C89.1113845,103.427938 88.6674414,102.421667 88.2959311,101.519762 C87.9329881,100.613183 87.6198914,99.8195373 87.3761121,99.1575168 C87.28966,98.9184106 87.2094387,98.6979968 87.136227,98.4962752 C90.7820126,98.5211984 95.8733393,98.5507946 100.962329,98.5609196 L100.962329,105.907789" id="Fill-331" fill="#EB9188"></path>
                        <path d="M62.8556534,104.123449 L62.8283938,104.08918 L62.8291726,104.08918 L62.8564323,104.123449 C62.8556534,104.123449 62.8564323,104.123449 62.8556534,104.123449" id="Fill-332" fill="#FFFFFF"></path>
                        <path d="M62.8564323,104.123449 L62.8291726,104.08918 C63.2365099,103.898362 63.6555299,103.738698 64.0823384,103.614083 L76.3966976,100.024374 L81.7723037,98.4549963 C81.7723037,98.4549963 81.8104672,98.4549963 81.8829,98.4557752 L81.8821212,98.4557752 L81.8704385,98.4557752 L76.4956113,100.023595 L69.6378582,102.022897 L64.1804732,103.614862 C63.7287416,103.746487 63.2863561,103.917054 62.8564323,104.123449" id="Fill-333" fill="#65BEAE"></path>
                        <path d="M60.2729948,105.907789 L60.17486,105.907789 C60.9716211,105.161653 61.8688535,104.538575 62.8283938,104.08918 L62.8556534,104.123449 C61.9233729,104.569729 61.0502847,105.180345 60.2729948,105.907789" id="Fill-334" fill="#ADD6B7"></path>
                        <path d="M86.8231303,98.4939387 C83.9484038,98.4736886 82.0472369,98.4573328 81.8821212,98.4557752 L81.8829,98.4557752 C82.3393047,98.4596694 84.1797216,98.4752463 86.8231303,98.4939387" id="Fill-335" fill="#F6E0BB"></path>
                        <path d="M88.7951724,105.907789 L60.2729948,105.907789 C61.0502847,105.180345 61.9233729,104.569729 62.8556534,104.123449 L62.8564323,104.123449 C63.2863561,103.917054 63.7287416,103.746487 64.1804732,103.614862 L69.6378582,102.022897 L76.4956113,100.023595 L81.8704385,98.4557752 L81.8821212,98.4557752 C82.0472369,98.4573328 83.9484038,98.4736886 86.8231303,98.4939387 C86.8589573,98.7283718 86.9025727,98.9885069 86.9570921,99.2720074 C87.0887173,99.9706337 87.2546119,100.818799 87.5046219,101.779897 C87.7484012,102.742552 88.0498152,103.82515 88.4602679,104.98096 C88.5661912,105.284711 88.6775664,105.593913 88.7951724,105.907789" id="Fill-336" fill="#EB9188"></path>
                        <path d="M90.3209348,105.907789 L88.7951724,105.907789 C88.6775664,105.593913 88.5661912,105.284711 88.4602679,104.98096 C88.0498152,103.82515 87.7484012,102.742552 87.5046219,101.779897 C87.2546119,100.818799 87.0887173,99.9706337 86.9570921,99.2720074 C86.9025727,98.9885069 86.8589573,98.7283718 86.8231303,98.4939387 C86.9259382,98.4947175 87.0310826,98.4954964 87.136227,98.4962752 C87.2094387,98.6979968 87.28966,98.9184106 87.3761121,99.1575168 C87.6198914,99.8195373 87.9329881,100.613183 88.2959311,101.519762 C88.6674414,102.421667 89.1113845,103.427938 89.6184143,104.506642 C89.8372705,104.963047 90.0717036,105.431134 90.3209348,105.907789" id="Fill-337" fill="#ECB166"></path>
                        <polyline id="Fill-338" fill="#E77F75" points="88.1362673 134.486822 53.51104 169.11205 32.7625403 140.548593 59.975475 106.326809 88.1362673 134.486822"></polyline>
                        <polyline id="Fill-339" fill="#E77F75" points="113.986219 134.486822 148.610667 169.11205 170.336621 140.66542 142.147011 106.326809 113.986219 134.486822"></polyline>
                        <path d="M75.234657,63.5750859 L91.3155232,82.4442264 C88.9524996,80.0259046 76.9029485,74.8185297 76.9029485,74.8185297 C77.2066991,70.4063581 76.4675727,66.6772358 75.234657,63.5750859" id="Fill-340" fill="#383835"></path>
                        <path d="M93.5056426,9.10793739 C79.1499238,12.6182035 68.5280004,25.2370921 68.5280004,40.2610621 L68.5280004,54.0684722 C70.7671872,56.0732259 73.4993846,59.1971836 75.234657,63.5750859 C76.4675727,66.6772358 77.2066991,70.4063581 76.9029485,74.8185297 C76.9029485,74.8185297 88.9524996,80.0259046 91.3155232,82.4442264 L91.5624179,82.7362943 L91.5624179,80.0593951 C91.4167734,79.947241 91.2812539,79.8241831 91.1363882,79.7011252 C90.7111375,79.3420765 90.2975694,78.9729027 89.8715398,78.5811424 C89.747703,78.4689883 89.6246451,78.3459304 89.5015871,78.2337763 C89.3785292,78.1107184 89.2562502,77.9876605 89.1324134,77.8755065 C89.0093555,77.7524485 88.8972014,77.6293906 88.7741435,77.5063327 C88.6401817,77.3824959 88.5155661,77.259438 88.4049697,77.1246974 C88.1471712,76.8785815 87.9111804,76.610658 87.6658434,76.3528594 C87.4181698,76.0724743 87.1611501,75.792868 86.9150343,75.5132617 C86.8021014,75.3785211 86.691505,75.2554632 86.5785721,75.1207225 C86.4562931,74.9859819 86.3324563,74.8403374 86.2210811,74.6954717 C85.8628112,74.2694421 85.5037625,73.8325086 85.1563964,73.3737674 C85.0559251,73.2507095 84.9554538,73.1159688 84.8542036,72.9929109 C84.6524821,72.7358912 84.4624432,72.4664099 84.2622794,72.1977075 C84.136885,72.0411592 84.0262886,71.8729281 83.9032307,71.7054758 C83.2194025,70.7311375 82.5480359,69.7233087 81.8976981,68.6710856 C81.7746402,68.4693641 81.663265,68.2785465 81.5394282,68.0776038 C81.1476679,67.4163622 80.7668114,66.7442167 80.3984165,66.0502635 C80.2979452,65.8594458 80.196695,65.669407 80.094666,65.4793682 C79.859454,65.0198481 79.6359247,64.5611069 79.4123955,64.1015868 C79.266751,63.7877113 79.1094238,63.4746145 78.9645581,63.1607389 C78.8524041,62.9037192 78.74025,62.6576034 78.628096,62.3881221 C78.5494323,62.2206699 78.4832303,62.0641215 78.4154706,61.8958905 C78.3375858,61.7167555 78.2589222,61.5376206 78.1802586,61.3475818 C78.0790084,61.1115909 77.9785371,60.8654751 77.8889696,60.6201381 C77.7775944,60.3280703 77.6654403,60.0367813 77.5525074,59.7454923 L77.5306997,59.6785114 C77.4294495,59.3981262 77.3289782,59.11852 77.2285068,58.8498175 L77.2066991,58.7711539 C77.0937662,58.4689611 77.0041987,58.1784509 76.9029485,57.8863831 C76.8024772,57.5841902 76.7020059,57.2710935 76.6124384,56.9572179 C76.2985628,56.890237 76.0197354,56.8115734 75.7385714,56.7220059 C75.469869,56.6215346 75.2128493,56.4984767 74.9550507,56.363736 C74.7977235,56.2741686 74.641954,56.1736972 74.4846268,56.0732259 C74.350665,55.9828796 74.2151455,55.8824082 74.0819626,55.7702542 C72.7384505,54.661954 71.8645835,52.8807296 71.3147171,50.6080523 C71.2376112,50.2941768 71.1589476,49.9919839 71.1145533,49.689791 C71.0810628,49.5667331 71.0584762,49.4428964 71.0358896,49.3206173 C70.9689088,48.9054915 70.9136106,48.51451 70.8902451,48.1445574 C70.8793413,48.0098168 70.8676586,47.8867589 70.8559759,47.7527971 L70.8559759,47.6858162 C70.845072,47.5502967 70.845072,47.4163349 70.845072,47.2823731 C70.845072,47.058065 70.8559759,46.8454396 70.8676586,46.6328142 L70.8902451,46.4645832 C70.9136106,46.1849769 70.9689088,45.9045918 71.0358896,45.6584759 L71.0693801,45.5128314 L71.1145533,45.3897735 L71.1145533,45.3780908 L71.1488225,45.300206 L71.2041207,45.1654654 L71.2492939,45.0533113 L71.3147171,44.9193496 C71.3598902,44.8297821 71.4050634,44.7402146 71.4603616,44.6623298 L71.5507079,44.5384931 C71.6075638,44.4598295 71.6636408,44.3819447 71.7306217,44.314185 L71.7532083,44.2923772 L71.831093,44.2028098 L71.9432471,44.1132423 L72.0546223,44.022896 L72.0647473,44.0119921 L72.1675552,43.9450112 L72.2898343,43.8663476 L72.4237961,43.8001456 L72.6262964,43.7097992 C72.6940562,43.6872127 72.7602582,43.6646261 72.8389218,43.6428184 L73.0071529,43.598424 C73.0959415,43.5758375 73.1971917,43.5641547 73.2984419,43.5532509 L73.3880094,43.542347 L73.4993846,43.5306643 L73.5780482,43.5306643 L73.6224425,43.5197604 L73.6333464,43.5197604 C73.7338177,44.0119921 73.8467506,44.5050026 73.9589047,44.9972343 C74.8545794,48.6702795 76.2097742,52.0294492 78.0462968,50.7311103 C77.7775944,46.1951019 78.1023738,42.377191 78.8633079,39.1636659 C84.9437711,38.0545869 90.0841651,34.9080426 93.197219,30.6415155 C93.2914595,30.8393428 93.4028347,31.0145835 93.5056426,31.2022858 L93.5056426,9.10793739" id="Fill-341" fill="#383835"></path>
                        <path d="M108.504689,9.10793739 C122.860408,12.6182035 133.481553,25.2370921 133.481553,40.2610621 L133.481553,54.0684722 C131.242366,56.0732259 128.510169,59.1971836 126.774896,63.5750859 C125.54198,66.6772358 124.803633,70.4063581 125.105826,74.8185297 C125.105826,74.8185297 113.057054,80.0259046 110.69403,82.4442264 L110.448693,82.7362943 L110.448693,80.0593951 C110.593559,79.947241 110.727521,79.8241831 110.873165,79.7011252 C111.298416,79.3420765 111.713542,78.9729027 112.139571,78.5811424 C112.262629,78.4689883 112.384908,78.3459304 112.507966,78.2337763 C112.631803,78.1107184 112.754861,77.9876605 112.877919,77.8755065 C113.000198,77.7524485 113.113131,77.6293906 113.236967,77.5063327 C113.37015,77.3824959 113.493987,77.259438 113.604583,77.1246974 C113.863161,76.8785815 114.098373,76.610658 114.345268,76.3528594 C114.591383,76.0724743 114.849182,75.792868 115.094519,75.5132617 C115.206673,75.3785211 115.318827,75.2554632 115.43176,75.1207225 C115.554039,74.9859819 115.677097,74.8403374 115.788472,74.6954717 C116.147521,74.2694421 116.50657,73.8325086 116.852378,73.3737674 C116.953628,73.2507095 117.054878,73.1159688 117.156129,72.9929109 C117.357071,72.7358912 117.54711,72.4664099 117.748832,72.1977075 C117.872668,72.0411592 117.983265,71.8729281 118.107101,71.7054758 C118.791708,70.7311375 119.462296,69.7233087 120.111855,68.6710856 C120.234913,68.4693641 120.347846,68.2785465 120.470904,68.0776038 C120.861885,67.4163622 121.242742,66.7442167 121.612694,66.0502635 C121.712387,65.8594458 121.812858,65.669407 121.915666,65.4793682 C122.150099,65.0198481 122.37285,64.5611069 122.597937,64.1015868 C122.743581,63.7877113 122.900129,63.4746145 123.044995,63.1607389 C123.157928,62.9037192 123.270082,62.6576034 123.381457,62.3881221 C123.4609,62.2206699 123.527102,62.0641215 123.594862,61.8958905 C123.672746,61.7167555 123.752189,61.5376206 123.830073,61.3475818 C123.930545,61.1115909 124.031016,60.8654751 124.120584,60.6201381 C124.232738,60.3280703 124.344892,60.0367813 124.457046,59.7454923 L124.478075,59.6785114 C124.580104,59.3981262 124.680575,59.11852 124.781825,58.8498175 L124.803633,58.7711539 C124.916566,58.4689611 125.005355,58.1784509 125.105826,57.8863831 C125.207076,57.5841902 125.308326,57.2710935 125.397115,56.9572179 C125.710212,56.890237 125.991376,56.8115734 126.270982,56.7220059 C126.540463,56.6215346 126.796704,56.4984767 127.055281,56.363736 C127.211051,56.2741686 127.367599,56.1736972 127.524926,56.0732259 C127.659667,55.9828796 127.794408,55.8824082 127.927591,55.7702542 C129.271882,54.661954 130.145749,52.8807296 130.694057,50.6080523 C130.771163,50.2941768 130.851385,49.9919839 130.896558,49.689791 C130.929269,49.5667331 130.951856,49.4428964 130.974442,49.3206173 C131.041423,48.9054915 131.096722,48.51451 131.120087,48.1445574 C131.130212,48.0098168 131.141895,47.8867589 131.153577,47.7527971 L131.153577,47.6858162 C131.164481,47.5502967 131.164481,47.4163349 131.164481,47.2823731 C131.164481,47.058065 131.153577,46.8454396 131.141895,46.6328142 L131.120087,46.4645832 C131.096722,46.1849769 131.041423,45.9045918 130.974442,45.6584759 L130.940173,45.5128314 L130.896558,45.3897735 L130.896558,45.3780908 L130.862288,45.300206 L130.805433,45.1654654 L130.761038,45.0533113 L130.694057,44.9193496 C130.649663,44.8297821 130.60449,44.7402146 130.548413,44.6623298 L130.459624,44.5384931 C130.402768,44.4598295 130.346691,44.3819447 130.27971,44.314185 L130.256345,44.2923772 L130.179239,44.2028098 L130.066306,44.1132423 L129.95571,44.022896 L129.944027,44.0119921 L129.842777,43.9450112 L129.720498,43.8663476 L129.585757,43.8001456 L129.384036,43.7097992 C129.316276,43.6872127 129.250074,43.6646261 129.17141,43.6428184 L129.0024,43.598424 C128.914391,43.5758375 128.812362,43.5641547 128.71189,43.5532509 L128.623102,43.542347 L128.510169,43.5306643 L128.431505,43.5306643 L128.387111,43.5197604 L128.376207,43.5197604 C128.274957,44.0119921 128.163581,44.5050026 128.050649,44.9972343 C127.155753,48.6702795 125.800558,52.0294492 123.963256,50.7311103 C124.232738,46.1951019 123.907958,42.377191 123.147024,39.1636659 C117.066561,38.0545869 111.925388,34.9080426 108.813113,30.6415155 C108.718094,30.8393428 108.607497,31.0145835 108.504689,31.2022858 L108.504689,9.10793739" id="Fill-342" fill="#383835"></path>
                        <path d="M91.1036766,14.7896306 C91.1036766,14.7896306 86.3721775,43.9730497 112.407495,43.9730497 C138.443591,43.9730497 137.322829,25.0758707 137.322829,24.5166581 C137.322829,23.9566667 127.944725,25.2962845 124.166536,13.382253 C117.959899,-6.18551388 93.5056426,-2.26635281 91.1036766,14.7896306" id="Fill-343" fill="#383835"></path>
                        <path d="M180.316774,173.194769 L161.647018,173.194769 C161.647018,171.550621 162.067596,170.009282 162.823857,168.669664 C162.925107,168.467164 163.041155,168.272452 163.173559,168.085528 C164.841072,165.537918 167.714241,163.864175 170.985401,163.864175 C174.249551,163.864175 177.12272,165.537918 178.790232,168.085528 C178.922637,168.272452 179.038685,168.467164 179.139935,168.669664 C179.896196,170.009282 180.316774,171.550621 180.316774,173.194769" id="Fill-344" fill="#EDEDE7"></path>
                        <path d="M179.139935,168.669664 L162.823857,168.669664 C162.925107,168.467164 163.041155,168.272452 163.173559,168.085528 L178.790232,168.085528 C178.922637,168.272452 179.038685,168.467164 179.139935,168.669664" id="Fill-345" fill="#DEE0DA"></path>
                        <path d="M171.626392,165.079956 C171.626392,165.435889 171.33744,165.724841 170.981507,165.724841 C170.625573,165.724841 170.336621,165.435889 170.336621,165.079956 L170.336621,164.13054 C170.336621,163.773828 170.625573,163.485655 170.981507,163.485655 C171.33744,163.485655 171.626392,163.773828 171.626392,164.13054 L171.626392,165.079956" id="Fill-346" fill="#DEE0DA"></path>
                        <path d="M154.027552,111.507703 L154.027552,163.924925 C154.027552,167.008382 151.503307,169.524839 148.426859,169.524839 L53.2438953,169.524839 C50.1596589,169.524839 47.64476,167.008382 47.64476,163.924925 L47.64476,111.507703 C47.64476,108.432034 50.1596589,105.907789 53.2438953,105.907789 L148.426859,105.907789 C151.503307,105.907789 154.027552,108.432034 154.027552,111.507703" id="Fill-347" fill="#EBEAE5"></path>
                        <path d="M154.025995,171.15263 C154.025995,172.28118 153.111627,173.194769 151.984635,173.194769 L50.3247746,173.194769 C49.1977821,173.194769 48.283415,172.28118 48.283415,171.15263 C48.283415,170.025638 49.1977821,169.11205 50.3247746,169.11205 L151.984635,169.11205 C153.111627,169.11205 154.025995,170.025638 154.025995,171.15263" id="Fill-348" fill="#DEE0DA"></path>
                        <path d="M108.686161,139.186389 C108.686161,143.308829 105.344905,146.650864 101.221686,146.650864 C97.0984665,146.650864 93.7572104,143.308829 93.7572104,139.186389 C93.7572104,135.064727 97.0984665,131.722692 101.221686,131.722692 C105.344905,131.722692 108.686161,135.064727 108.686161,139.186389" id="Fill-349" fill="#FFFFFF"></path>
                        <path d="M101.221686,169.11205 L51.1378914,169.11205 C49.0926377,168.277125 47.64476,166.264583 47.64476,163.924925 L47.64476,111.507703 C47.64476,108.432034 50.1596589,105.907789 53.2438953,105.907789 L101.221686,105.907789 L101.221686,131.722692 C97.0984665,131.722692 93.7572104,135.064727 93.7572104,139.186389 C93.7572104,143.308829 97.0984665,146.650864 101.221686,146.650864 L101.221686,169.11205" id="Fill-350" fill="#F1F0EB"></path>
                        <path d="M101.221686,169.524839 L53.2438953,169.524839 C52.5000959,169.524839 51.7882292,169.377637 51.1378914,169.11205 L101.221686,169.11205 L101.221686,169.524839" id="Fill-351" fill="#E9E9E4"></path>
                        <path d="M101.221686,146.650864 C97.0984665,146.650864 93.7572104,143.308829 93.7572104,139.186389 C93.7572104,135.064727 97.0984665,131.722692 101.221686,131.722692 L101.221686,146.650864" id="Fill-352" fill="#FFFFFF"></path>
                        <polyline id="Fill-353" fill="#DEE0DA" points="24.6173522 144.877428 19.865603 173.196326 8.04269662 173.196326 3.29250517 144.877428 24.6173522 144.877428"></polyline>
                        <polyline id="Fill-354" fill="#DEE0DA" points="27.6774443 144.877428 0.441144142 144.877428 3.65778469 140.500305 24.4608038 140.500305 27.6774443 144.877428"></polyline>
                        <path d="M11.2616737,137.44878 C11.2616737,137.44878 5.00519102,133.647225 8.56919759,126.43899 C12.1332042,119.230756 12.271839,111.072327 7.96481186,107.428878 C7.96481186,107.428878 17.8351474,109.963248 14.4300257,119.468304 C11.0241252,128.97336 5.4795092,130.019353 11.2616737,137.44878" id="Fill-355" fill="#FFFFFF"></path>
                        <path d="M16.247856,137.44878 C16.247856,137.44878 12.4595413,135.146506 14.6185068,130.782623 C16.7759146,126.417961 16.8600302,121.479289 14.2516696,119.272814 C14.2516696,119.272814 20.228546,120.807143 18.1661576,126.562827 C16.104548,132.317732 12.7469361,132.950156 16.247856,137.44878" id="Fill-356" fill="#FFFFFF"></path>
                        <path d="M19.600016,156.316363 C19.600016,159.434868 17.0726556,161.963008 13.953371,161.963008 C10.8340864,161.963008 8.30672595,159.434868 8.30672595,156.316363 C8.30672595,153.197857 10.8340864,150.669718 13.953371,150.669718 C17.0726556,150.669718 19.600016,153.197857 19.600016,156.316363" id="Fill-357" fill="#FFFFFF"></path>
                        <path d="M14.0554,173.196326 L8.04269662,173.196326 L3.29250517,144.877428 L14.0554,144.877428 L14.0554,150.670496 C14.0211307,150.669718 13.9876403,150.669718 13.953371,150.669718 C10.8340864,150.669718 8.30672595,153.197857 8.30672595,156.316363 C8.30672595,159.434868 10.8340864,161.963008 13.953371,161.963008 C13.9876403,161.963008 14.0211307,161.962229 14.0554,161.96145 L14.0554,173.196326" id="Fill-358" fill="#E9E9E4"></path>
                        <polyline id="Fill-359" fill="#E9E9E4" points="14.0554 144.877428 0.441144142 144.877428 3.65778469 140.500305 14.0554 140.500305 14.0554 144.877428"></polyline>
                        <path d="M13.953371,161.963008 C10.8340864,161.963008 8.30672595,159.434868 8.30672595,156.316363 C8.30672595,153.197857 10.8340864,150.669718 13.953371,150.669718 C13.9876403,150.669718 14.0211307,150.669718 14.0554,150.670496 L14.0554,161.96145 C14.0211307,161.962229 13.9876403,161.963008 13.953371,161.963008" id="Fill-360" fill="#FFFFFF"></path>
                    </g>
                </g>
            </g>
        </g>
    </g>
</svg>