<svg width="280px" height="65px" viewBox="0 0 280 65" version="1.1" xmlns="http://www.w3.org/2000/svg">
    <g stroke="none" stroke-width="1" fill="none" fill-rule="evenodd">
        <g transform="translate(-548.000000, -575.000000)">
            <g transform="translate(548.000000, 575.000000)">
                <rect fill="#4E4E4E" x="0.124702074" y="23.4769808" width="279.509348" height="41.2302553"></rect>
                <rect fill="#3DB54A" x="17.8175366" y="0.403863926" width="116.07467" height="30"></rect>
                <path d="M30.0825008,53.7529887 L35.1977352,53.7529887 L35.1977352,34.9092387 L30.0825008,34.9092387 L30.0825008,42.1514262 L22.8403133,42.1514262 L22.8403133,34.9092387 L17.725079,34.9092387 L17.725079,53.7529887 L22.8403133,53.7529887 L22.8403133,46.0361918 L30.0825008,46.0361918 L30.0825008,53.7529887 Z M46.1664852,50.3428325 C48.3989071,50.3428325 50.2446102,48.8838481 50.2446102,46.8447856 L50.2446102,45.4736918 L46.271954,45.7197856 C44.3559383,45.8604106 43.2660946,46.7217387 43.2660946,48.0576762 C43.2660946,49.4639262 44.4262508,50.3428325 46.1664852,50.3428325 Z M44.4789852,54.0518168 C40.8930477,54.0518168 38.1684383,51.7315043 38.1684383,48.3389262 C38.1684383,44.9111918 40.8051571,42.9248637 45.4985165,42.6436137 L50.2446102,42.3623637 L50.2446102,41.1143168 C50.2446102,39.3565043 49.0141415,38.3369731 47.0805477,38.3369731 C45.1645321,38.3369731 43.9516415,39.2861918 43.7055477,40.6748637 L39.0121883,40.6748637 C39.2055477,37.0186137 42.3168758,34.5049418 47.3090633,34.5049418 C52.1430477,34.5049418 55.2895321,37.0010356 55.2895321,40.7979106 L55.2895321,53.7529887 L50.3325008,53.7529887 L50.3325008,50.8701762 L50.2270321,50.8701762 C49.1723446,52.8740825 46.834454,54.0518168 44.4789852,54.0518168 Z M58.928204,53.7529887 L84.7856258,53.7529887 L84.7856258,34.9092387 L79.6703915,34.9092387 L79.6703915,49.8682231 L74.4145321,49.8682231 L74.4145321,34.9092387 L69.2992977,34.9092387 L69.2992977,49.8682231 L64.0434383,49.8682231 L64.0434383,34.9092387 L58.928204,34.9092387 L58.928204,53.7529887 Z M93.4867977,53.7529887 L100.975079,41.83502 L101.115704,41.83502 L101.115704,53.7529887 L106.143048,53.7529887 L106.143048,34.9092387 L101.115704,34.9092387 L93.6274227,46.6865825 L93.4867977,46.6865825 L93.4867977,34.9092387 L88.459454,34.9092387 L88.459454,53.7529887 L93.4867977,53.7529887 Z M129.117657,53.7529887 L134.232891,53.7529887 L134.232891,34.9092387 L116.936016,34.9092387 L116.936016,53.7529887 L122.051251,53.7529887 L122.051251,38.7764262 L129.117657,38.7764262 L129.117657,53.7529887 Z M148.928204,34.6104106 C153.709454,34.6104106 156.645001,38.2490825 156.645001,44.3311137 C156.645001,50.3955668 153.727032,54.0518168 149.016095,54.0518168 C146.273907,54.0518168 144.164532,52.7158793 143.162579,50.5889262 L143.05711,50.5889262 L143.05711,59.9053325 L137.924298,59.9053325 L137.924298,34.9092387 L142.986798,34.9092387 L142.986798,38.1963481 L143.092266,38.1963481 C144.111798,35.9815043 146.203595,34.6104106 148.928204,34.6104106 Z M147.205548,49.9209575 C149.771954,49.9209575 151.389141,47.7588481 151.389141,44.3311137 C151.389141,40.9209575 149.771954,38.7236918 147.205548,38.7236918 C144.691876,38.7236918 143.039532,40.9561137 143.039532,44.3311137 C143.039532,47.74127 144.691876,49.9209575 147.205548,49.9209575 Z M168.316876,54.1572856 C162.621563,54.1572856 158.982891,50.5010356 158.982891,44.3135356 C158.982891,38.2139262 162.674298,34.5049418 168.316876,34.5049418 C173.959454,34.5049418 177.65086,38.1963481 177.65086,44.3135356 C177.65086,50.5186137 174.012188,54.1572856 168.316876,54.1572856 Z M168.316876,50.2373637 C170.830548,50.2373637 172.430157,48.1104106 172.430157,44.3311137 C172.430157,40.5869731 170.81297,38.4248637 168.316876,38.4248637 C165.820782,38.4248637 164.186016,40.5869731 164.186016,44.3311137 C164.186016,48.1104106 165.785626,50.2373637 168.316876,50.2373637 Z M189.076641,38.3018168 C186.826641,38.3018168 185.209454,40.006895 185.033673,42.3623637 L193.03172,42.3623637 C192.926251,39.9541606 191.361798,38.3018168 189.076641,38.3018168 Z M193.102032,47.9873637 L197.81297,47.9873637 C197.25047,51.67877 193.87547,54.1572856 189.217266,54.1572856 C183.416485,54.1572856 179.936016,50.4483012 179.936016,44.4190043 C179.936016,38.4072856 183.451641,34.5049418 189.023907,34.5049418 C194.508282,34.5049418 197.971173,38.2139262 197.971173,43.944395 L197.971173,45.5088481 L184.980938,45.5088481 L184.980938,45.8252543 C184.980938,48.5147075 186.686016,50.3604106 189.305157,50.3604106 C191.186016,50.3604106 192.627423,49.42877 193.102032,47.9873637 Z M210.803204,43.6279887 L218.326641,34.9092387 L212.455548,34.9092387 L206.197735,42.4854106 L206.05711,42.4854106 L206.05711,34.9092387 L200.941876,34.9092387 L200.941876,53.7529887 L206.05711,53.7529887 L206.05711,45.6670512 L206.197735,45.6670512 L212.561016,53.7529887 L218.766095,53.7529887 L210.803204,43.6279887 Z M235.553204,34.9092387 L219.205548,34.9092387 L219.205548,38.7764262 L224.830548,38.7764262 L224.830548,53.7529887 L229.945782,53.7529887 L229.945782,38.7764262 L235.553204,38.7764262 L235.553204,34.9092387 Z M256.102032,53.7529887 L261.217266,53.7529887 L261.217266,34.9092387 L256.102032,34.9092387 L256.102032,53.7529887 Z M246.117657,44.1377543 L243.287579,44.1377543 L243.287579,49.9209575 L246.117657,49.9209575 C247.980938,49.9209575 249.176251,48.7432231 249.176251,47.0205668 C249.176251,45.2979106 247.96336,44.1377543 246.117657,44.1377543 Z M238.172345,53.7529887 L238.172345,34.9092387 L243.287579,34.9092387 L243.287579,40.3584575 L246.961407,40.3584575 C251.408673,40.3584575 254.256329,42.96002 254.256329,47.0557231 C254.256329,51.1514262 251.408673,53.7529887 246.961407,53.7529887 L238.172345,53.7529887 Z" fill="#FAFAFA"></path>
                <path d="M43.3890514,18.4043596 L43.3890514,10.6895158 L39.4705943,10.6895158 L39.1776256,14.8276994 C39.0799693,16.219301 38.8114146,17.4277971 38.2254771,18.3067033 L38.2254771,18.4043596 L43.3890514,18.4043596 Z M36.8338756,24.4956682 L33.5990123,24.4956682 L33.5990123,18.4043596 L34.5999889,18.4043596 C35.5521373,17.8672502 35.9183482,16.3657854 36.0404185,14.5957658 L36.4676646,8.016176 L46.9412974,8.016176 L46.9412974,18.4043596 L48.8822154,18.4043596 L48.8822154,24.4956682 L45.6351451,24.4956682 L45.6351451,21.1021135 L36.8338756,21.1021135 L36.8338756,24.4956682 Z M58.1229381,7.80865647 C61.4432506,7.80865647 63.4818248,10.3355119 63.4818248,14.5591448 C63.4818248,18.7705705 61.4554576,21.309633 58.1839732,21.309633 C56.2796764,21.309633 54.8148326,20.3818987 54.1190318,18.9048479 L54.0457896,18.9048479 L54.0457896,25.3745744 L50.4813365,25.3745744 L50.4813365,8.016176 L53.9969615,8.016176 L53.9969615,10.2988908 L54.0702037,10.2988908 C54.7782115,8.76080491 56.2308482,7.80865647 58.1229381,7.80865647 Z M56.926649,18.4409807 C58.7088756,18.4409807 59.8319224,16.9395158 59.8319224,14.5591448 C59.8319224,12.1909807 58.7088756,10.6651018 56.926649,10.6651018 C55.1810435,10.6651018 54.0335826,12.2153948 54.0335826,14.5591448 C54.0335826,16.9273088 55.1810435,18.4409807 56.926649,18.4409807 Z M66.9486217,25.9483049 C70.2933482,25.9483049 71.9290904,24.7520158 73.0521373,21.3950823 L77.5565318,8.016176 L73.7967662,8.016176 L71.0135631,18.2456682 L70.9525279,18.2456682 L68.1693248,8.016176 L64.2508678,8.016176 L68.8040904,21.1143205 C68.8285045,21.1631487 68.6942271,21.688051 68.6942271,21.7368791 C68.4500865,22.7744768 67.8031139,23.1895158 66.4969615,23.1895158 C66.3626842,23.1895158 65.7157115,23.1895158 65.6058482,23.1651018 L65.6058482,25.9116838 C65.7157115,25.9360979 66.8265514,25.9483049 66.9486217,25.9483049 Z M88.2132701,10.7017229 L88.2132701,8.016176 L79.0946178,8.016176 L79.0946178,21.1021135 L82.6468639,21.1021135 L82.6468639,10.7017229 L88.2132701,10.7017229 Z M93.7552623,21.1021135 L98.9554576,12.8257463 L99.0531139,12.8257463 L99.0531139,21.1021135 L102.544325,21.1021135 L102.544325,8.016176 L99.0531139,8.016176 L93.8529185,16.1948869 L93.7552623,16.1948869 L93.7552623,8.016176 L90.2640514,8.016176 L90.2640514,21.1021135 L93.7552623,21.1021135 Z M110.967176,10.372133 C109.404676,10.372133 108.281629,11.5562151 108.159559,13.1919573 L113.713758,13.1919573 C113.640516,11.519594 112.55409,10.372133 110.967176,10.372133 Z M113.762587,17.0982073 L117.034071,17.0982073 C116.643446,19.6616838 114.299696,21.3828752 111.064833,21.3828752 C107.036512,21.3828752 104.61952,18.8071916 104.61952,14.6201799 C104.61952,10.4453752 107.060926,7.73541429 110.930555,7.73541429 C114.739149,7.73541429 117.143934,10.3110979 117.143934,14.2905901 L117.143934,15.3770158 L108.122938,15.3770158 L108.122938,15.5967424 C108.122938,17.4644182 109.30702,18.7461565 111.125868,18.7461565 C112.43202,18.7461565 113.432997,18.0991838 113.762587,17.0982073 Z" fill="#FAFAFA"></path>
            </g>
        </g>
    </g>
</svg>