<svg width="400px" height="108px" viewBox="0 0 400 108" version="1.1" xmlns="http://www.w3.org/2000/svg">
    <g stroke="none" stroke-width="1" fill="none" fill-rule="evenodd">
        <g transform="translate(-135.000000, -174.000000)">
            <g transform="translate(135.000000, 174.000000)">
                <path d="M202.62207,51.3609375 L202.62207,35.1553711 L200.600586,35.1553711 L200.600586,42.1631836 L191.706055,42.1631836 L191.706055,35.1553711 L189.68457,35.1553711 L189.68457,51.3609375 L191.706055,51.3609375 L191.706055,43.9825195 L200.600586,43.9825195 L200.600586,51.3609375 L202.62207,51.3609375 Z M216.525391,51.3609375 L214.896973,46.7227539 L208.450684,46.7227539 L206.822266,51.3609375 L204.699707,51.3609375 L210.674316,35.1553711 L212.67334,35.1553711 L218.647949,51.3609375 L216.525391,51.3609375 Z M211.640137,37.6148438 L209.045898,45.0044922 L214.301758,45.0044922 L211.70752,37.6148438 L211.640137,37.6148438 Z M228.148926,43.9825195 L230.428711,43.9825195 C232.764648,43.9825195 234.157227,45.0831055 234.157227,46.9361328 C234.157227,48.7217773 232.674805,49.9458984 230.507324,49.9458984 C228.283691,49.9458984 226.733887,48.8453125 226.554199,47.1382813 L224.600098,47.1382813 C224.746094,49.9009766 227.115723,51.7427734 230.529785,51.7427734 C233.730469,51.7427734 236.234863,49.6651367 236.234863,46.9922852 C236.234863,44.7911133 234.909668,43.2413086 232.753418,42.9605469 L232.753418,42.8707031 C234.539062,42.4327148 235.763184,40.9053711 235.763184,39.1084961 C235.763184,36.5816406 233.595703,34.7735352 230.563477,34.7735352 C227.340332,34.7735352 225.240234,36.5030273 225.038086,39.3106445 L227.003418,39.3106445 C227.171875,37.6036133 228.474609,36.5704102 230.484863,36.5704102 C232.472656,36.5704102 233.708008,37.6148438 233.708008,39.2881836 C233.708008,40.9839844 232.31543,42.1856445 230.338867,42.1856445 L228.148926,42.1856445 L228.148926,43.9825195 Z M249.295898,51.3609375 L247.66748,46.7227539 L241.221191,46.7227539 L239.592773,51.3609375 L237.470215,51.3609375 L243.444824,35.1553711 L245.443848,35.1553711 L251.418457,51.3609375 L249.295898,51.3609375 Z M244.410645,37.6148438 L241.816406,45.0044922 L247.072266,45.0044922 L244.478027,37.6148438 L244.410645,37.6148438 Z M259.717773,51.6304688 C263.22168,51.6304688 265.602539,49.9234375 266.399902,46.8462891 L264.333496,46.8462891 C263.693359,48.6993164 262.03125,49.7662109 259.729004,49.7662109 C256.52832,49.7662109 254.495605,47.228125 254.495605,43.2525391 C254.495605,39.3106445 256.550781,36.7500977 259.717773,36.7500977 C261.941406,36.7500977 263.749512,38.0416016 264.333496,40.040625 L266.399902,40.040625 C265.804688,36.9297852 263.165527,34.8858398 259.717773,34.8858398 C255.281738,34.8858398 252.417969,38.1651367 252.417969,43.2525391 C252.417969,48.3848633 255.248047,51.6304688 259.717773,51.6304688 Z M280.808594,51.3609375 L280.808594,35.1553711 L271.026855,35.1553711 L270.442871,45.2178711 C270.263184,48.3511719 269.578125,49.6089844 268.039551,49.6089844 C267.859863,49.6089844 267.556641,49.575293 267.433105,49.5416016 L267.433105,51.349707 C267.635254,51.4170898 267.927246,51.4620117 268.219238,51.4620117 C270.835938,51.4620117 272.08252,49.6089844 272.352051,45.2964844 L272.868652,36.974707 L278.787109,36.974707 L278.787109,51.3609375 L280.808594,51.3609375 Z M285.772461,51.4732422 C288.15332,51.4732422 289.411133,50.3165039 290.949707,46.7227539 L295.913574,35.1553711 L293.813477,35.1553711 L289.568359,45.6558594 L289.388672,45.6558594 L285.04248,35.1553711 L282.88623,35.1553711 L288.422852,47.9019531 C287.782715,49.0923828 286.985352,49.5977539 285.772461,49.5977539 C285.424316,49.5977539 285.098633,49.5640625 284.874023,49.5079102 L284.874023,51.3272461 C285.053711,51.4170898 285.401855,51.4732422 285.772461,51.4732422 Z M310.1875,42.915625 L317.105469,35.1553711 L314.601074,35.1553711 L308.087402,42.6236328 L307.997559,42.6236328 L307.997559,35.1553711 L305.976074,35.1553711 L305.976074,42.6236328 L305.88623,42.6236328 L299.39502,35.1553711 L296.834473,35.1553711 L303.774902,42.9380859 L296.194336,51.3609375 L298.799805,51.3609375 L305.88623,43.4883789 L305.976074,43.4883789 L305.976074,51.3609375 L307.997559,51.3609375 L307.997559,43.4883789 L308.087402,43.4883789 L315.117676,51.3609375 L317.835449,51.3609375 L310.1875,42.915625 Z M329.784668,49.5416016 L321.766113,49.5416016 L321.766113,43.9712891 L329.369141,43.9712891 L329.369141,42.1744141 L321.766113,42.1744141 L321.766113,36.974707 L329.784668,36.974707 L329.784668,35.1553711 L319.744629,35.1553711 L319.744629,51.3609375 L329.784668,51.3609375 L329.784668,49.5416016 Z M345.608398,51.3609375 L345.608398,35.1553711 L343.586914,35.1553711 L343.586914,42.1631836 L334.692383,42.1631836 L334.692383,35.1553711 L332.670898,35.1553711 L332.670898,51.3609375 L334.692383,51.3609375 L334.692383,43.9825195 L343.586914,43.9825195 L343.586914,51.3609375 L345.608398,51.3609375 Z M361.915039,51.3609375 L361.915039,35.1553711 L359.893555,35.1553711 L359.893555,42.1631836 L350.999023,42.1631836 L350.999023,35.1553711 L348.977539,35.1553711 L348.977539,51.3609375 L350.999023,51.3609375 L350.999023,43.9825195 L359.893555,43.9825195 L359.893555,51.3609375 L361.915039,51.3609375 Z M372.123535,34.8858398 C376.716797,34.8858398 379.591797,38.1202148 379.591797,43.2637695 C379.591797,48.4073242 376.716797,51.6304688 372.123535,51.6304688 C367.530273,51.6304688 364.655273,48.4073242 364.655273,43.2637695 C364.655273,38.1202148 367.530273,34.8858398 372.123535,34.8858398 Z M372.123535,36.7500977 C368.810547,36.7500977 366.73291,39.2657227 366.73291,43.2637695 C366.73291,47.2505859 368.810547,49.7662109 372.123535,49.7662109 C375.436523,49.7662109 377.51416,47.2505859 377.51416,43.2637695 C377.51416,39.2657227 375.436523,36.7500977 372.123535,36.7500977 Z M398.301758,51.3609375 L398.301758,35.1553711 L395.95459,35.1553711 L390.361816,48.6768555 L390.271973,48.6768555 L384.679199,35.1553711 L382.332031,35.1553711 L382.332031,51.3609375 L384.21875,51.3609375 L384.21875,38.8726563 L384.297363,38.8726563 L389.463379,51.2486328 L391.17041,51.2486328 L396.336426,38.8726563 L396.415039,38.8726563 L396.415039,51.3609375 L398.301758,51.3609375 Z" fill="#3B3B3B"></path>
                <path d="M205.063135,63.4392578 C215.758984,63.4392578 222.497119,70.6282715 222.497119,82.1507324 C222.497119,93.6481445 215.758984,100.837158 205.063135,100.837158 C194.342236,100.837158 187.62915,93.6481445 187.62915,82.1507324 C187.62915,70.6282715 194.342236,63.4392578 205.063135,63.4392578 Z M205.063135,69.7515625 C199.151611,69.7515625 195.344189,74.5609375 195.344189,82.1507324 C195.344189,89.7154785 199.126562,94.4998047 205.063135,94.4998047 C210.974658,94.4998047 214.757031,89.7154785 214.757031,82.1507324 C214.757031,74.5609375 210.974658,69.7515625 205.063135,69.7515625 Z M242.310742,100.210938 L234.745996,100.210938 L234.745996,70.3026367 L224.300635,70.3026367 L224.300635,64.0654785 L252.781152,64.0654785 L252.781152,70.3026367 L242.310742,70.3026367 L242.310742,100.210938 Z M265.756445,85.0563965 C265.480908,89.0892578 264.954883,91.8696777 263.351758,93.7483398 L263.351758,93.9487305 L278.105518,93.9487305 L278.105518,70.2775879 L266.708301,70.2775879 L265.756445,85.0563965 Z M259.569385,100.210938 L259.569385,107.349854 L252.706006,107.349854 L252.706006,93.9487305 L255.235937,93.9487305 C257.765869,92.2203613 258.492285,89.3898438 258.792871,84.4802734 L260.045313,64.0654785 L285.670264,64.0654785 L285.670264,93.9487305 L290.179053,93.9487305 L290.179053,107.349854 L283.340723,107.349854 L283.340723,100.210938 L259.569385,100.210938 Z M294.437354,100.210938 L294.437354,64.0654785 L302.0021,64.0654785 L302.0021,76.1891113 L309.015771,76.1891113 C316.630615,76.1891113 321.915918,81.0235352 321.915918,88.1875 C321.915918,95.4015625 316.831006,100.210938 309.391504,100.210938 L294.437354,100.210938 Z M302.0021,94.1741699 L307.387598,94.1741699 C311.695996,94.1741699 314.17583,92.0700684 314.17583,88.1875 C314.17583,84.2798828 311.670947,82.1507324 307.362549,82.1507324 L302.0021,82.1507324 L302.0021,94.1741699 Z M333.438379,100.210938 L333.438379,64.0654785 L325.873633,64.0654785 L325.873633,100.210938 L333.438379,100.210938 Z M338.022314,100.210938 L346.188232,100.210938 L354.15376,87.5612793 L354.35415,87.5612793 L362.26958,100.210938 L370.886377,100.210938 L359.213623,82.2258789 L359.213623,82.0505371 L371.03667,64.0654785 L362.595215,64.0654785 L354.855127,77.0908691 L354.654736,77.0908691 L346.989795,64.0654785 L338.097461,64.0654785 L349.494678,81.9002441 L349.494678,82.1006348 L338.022314,100.210938 Z M399.567285,93.9487305 L383.185352,93.9487305 L383.185352,84.830957 L398.640479,84.830957 L398.640479,79.0196289 L383.185352,79.0196289 L383.185352,70.3026367 L399.567285,70.3026367 L399.567285,64.0654785 L375.620605,64.0654785 L375.620605,100.210938 L399.567285,100.210938 L399.567285,93.9487305 Z" fill="#000000"></path>
                <path d="M81.2811067,48.8295663 C79.5817992,47.1915084 77.9175441,49.0988552 77.1506193,45.0111973 C76.3836945,40.9235393 78.7899075,22.1896717 78.8674878,22.0374949 C78.3505343,21.2916794 77.8914677,20.8169475 77.6150132,20.5610816 C77.955919,20.8132177 78.4169252,21.2891431 78.9420843,22.0261562 C78.9405924,22.030632 80.4116347,24.6504599 80.4116347,24.6504599 C81.4276386,26.9689181 82.2914657,30.3391865 82.2153773,35.0521913 C82.2064257,35.5669069 82.5301744,36.029405 83.0165433,36.1994849 C83.1448492,36.2427509 83.277631,36.2651298 83.4074288,36.2651298 C83.7729515,36.2651298 84.1265387,36.0965418 84.3577878,35.7951721 C84.6666172,35.3893673 91.1341309,26.7839189 88.2860377,19.898665 C92.5947297,20.8982576 99.1055093,23.1958288 100.452721,27.1285546 C100.640705,27.6760926 101.195702,28.0117767 101.768603,27.920769 C102.340012,27.8297613 102.765212,27.3419005 102.775655,26.7630319 C102.778639,26.6421856 102.806986,23.7523185 100.874937,20.2701554 C99.2412749,17.3250869 95.8426598,13.3804257 88.8574467,10.7844687 C91.4414683,7.4858129 95.4771372,6.75029173 98.5594632,6.75029173 C100.585503,6.75029173 102.061021,7.07851619 102.074449,7.08150005 C102.178884,7.10537091 102.284811,7.11432249 102.389246,7.1098467 C103.0263,7.08597583 103.536539,6.56081671 103.536539,5.91779516 C103.536539,5.50154688 103.323194,5.13602419 103.000937,4.92267829 C99.8872803,2.6042201 96.2320534,1.42857978 92.1396912,1.42857978 C87.456525,1.42857978 83.5581137,2.97571051 82.1169099,3.63066749 C78.7913994,1.86422315 75.5166145,0.969065548 72.3761033,0.969065548 C65.0939962,0.969065548 61.0762305,5.71041698 60.9076425,5.91182744 C60.5540552,6.34001116 60.537644,6.95617798 60.8733281,7.39778907 C61.2090122,7.83940015 61.7998162,7.99306887 62.3070722,7.76778754 C62.3175157,7.76331175 63.3752936,7.31424102 65.0104481,7.31424102 C67.1812053,7.31424102 70.312765,8.09452007 73.584566,11.5229737 C71.1273584,11.8765609 67.357253,12.9283711 64.7657717,16.0271084 C62.1727985,19.1288294 61.361189,23.5046582 62.3563058,29.0352403 C62.4488055,29.5544317 62.8740053,29.9497929 63.3976725,30.0094701 C63.9213397,30.0676554 64.4241199,29.7737453 64.6300062,29.2888682 C64.6389577,29.2664893 65.5997602,27.0420227 67.7570901,24.8638058 C68.0784516,24.5397588 68.408168,24.2339133 68.74609,23.9462693 C70.282628,22.638444 72.1178503,21.7295607 74.0772011,21.2481151 L76.5174007,20.6483595 C76.0881727,21.0459586 69.6534276,33.6691524 72.3761033,49.5914002 C72.6660824,51.2915469 82.9804142,50.4676242 81.2811067,48.8295663 Z" fill="#000000" fill-rule="nonzero"></path>
                <g transform="translate(111.199585, 28.452029)" fill="#565656">
                    <path d="M11.3232258,0.0366048195 C12.8808274,0.0366048195 14.1788288,1.33460619 14.1788288,2.97874126 C14.1788288,4.62287633 12.8808274,5.92087771 11.3232258,5.92087771 C9.76562412,5.92087771 8.46762275,4.62287633 8.46762275,2.97874126 C8.46762275,1.42113962 9.6790907,0.0366048195 11.3232258,0.0366048195"></path>
                    <path d="M10.8905586,6.61314511 C8.46762275,6.44007826 7.08308796,5.14207688 5.61201973,4.36327606 C-0.445320004,0.901939068 -2.00292165,4.44980949 3.18908384,7.6515462 C8.2945559,10.8532829 8.12148905,9.46874812 7.16962138,19.2470251 C7.08308796,20.6315599 8.55415618,20.8911602 9.41949043,20.4584931 C10.6309584,19.8527591 10.8040252,16.9971561 11.3232258,16.9971561 C11.7558929,16.9971561 12.2750934,19.9392925 13.2269611,20.4584931 C14.0922954,20.8911602 15.5633636,20.6315599 15.4768302,19.2470251 C14.6114959,9.46874812 14.3518956,10.8532829 19.4573677,7.6515462 C24.5628398,4.44980949 23.0917715,0.988472493 17.0344318,4.36327606 C15.2172299,5.31514373 13.9192285,6.44007826 11.7558929,6.61314511 L11.7558929,6.61314511 L10.8905586,6.61314511 Z"></path>
                </g>
                <g transform="translate(0.541174, 48.087937)" fill-rule="nonzero" fill="#000000">
                    <path d="M45.5282668,3.77601642 C44.9099246,4.60047266 44.4976965,5.63104296 44.4976965,7.27995544 L44.4976965,33.6625551 C44.4976965,35.3114676 44.9099246,36.3420379 45.5282668,37.1664941 C46.146609,37.9909504 47.1771793,38.4031785 48.2077496,38.4031785 C49.2383199,38.4031785 50.2688902,37.9909504 50.8872324,37.1664941 C51.5055745,36.3420379 51.9178027,35.1053535 51.9178027,33.6625551 L51.9178027,7.07384138 C51.9178027,5.63104296 51.5055745,4.60047266 50.8872324,3.77601642 C50.0627761,2.95156018 49.2383199,2.53933206 48.2077496,2.53933206 C47.1771793,2.74544612 46.146609,2.95156018 45.5282668,3.77601642"></path>
                    <path d="M110.454196,19.2345709 C110.454196,12.8450351 115.607047,7.69218356 121.996583,7.69218356 C128.386119,7.69218356 133.53897,12.8450351 133.53897,19.2345709 C133.53897,25.6241068 128.386119,30.7769583 121.996583,30.7769583 C115.607047,30.7769583 110.454196,25.6241068 110.454196,19.2345709 M103.034089,19.2345709 C103.034089,29.746388 111.484766,38.1970644 121.996583,38.1970644 C125.500522,38.1970644 129.004461,37.1664941 131.890058,35.5175816 L132.302286,35.3114676 L133.332856,34.6931254 L133.745084,35.7236957 L133.951198,36.1359238 C134.569541,37.5787222 135.806225,38.4031785 137.455137,38.4031785 C139.516278,38.4031785 141.165191,36.754266 141.165191,34.4870113 L141.165191,18.6162287 C140.959077,8.5166398 132.302286,0.0659633466 122.202697,0.0659633466 C111.484766,0.272077406 103.034089,8.72275386 103.034089,19.2345709"></path>
                    <path d="M7.80939384,19.440685 C7.80939384,13.0511491 12.9622453,7.89829762 19.3517812,7.89829762 C25.7413171,7.89829762 30.8941685,13.0511491 30.8941685,19.440685 C30.8941685,25.8302208 25.7413171,30.9830723 19.3517812,30.9830723 C12.9622453,30.9830723 7.80939384,25.6241068 7.80939384,19.440685 M0.18317363,19.440685 C0.18317363,29.952502 8.63385008,38.4031785 19.1456671,38.4031785 C22.4434921,38.4031785 25.535203,37.5787222 28.4207998,35.9298098 L29.039142,35.7236957 L30.4819404,34.8992395 L30.4819404,40.258205 C30.4819404,46.0293987 26.3596592,50.9761361 20.5884656,52.0067064 L20.5884656,52.0067064 L20.5884656,52.0067064 C18.527325,52.2128205 16.8784125,53.861733 16.8784125,55.9228736 C16.8784125,57.9840142 18.527325,59.8390407 20.7945796,59.8390407 C21.2068077,59.8390407 21.4129218,59.8390407 21.8251499,59.6329266 L21.8251499,59.6329266 L21.8251499,59.6329266 C30.8941685,58.1901282 37.9020466,50.357794 38.3142747,41.2887753 L38.3142747,40.8765472 L38.3142747,18.6162287 C37.9020466,8.5166398 29.4513701,0.478191466 19.3517812,0.478191466 C8.83996414,0.272077406 0.18317363,8.92886792 0.18317363,19.440685"></path>
                    <path d="M65.9335587,19.440685 C65.9335587,13.0511491 71.0864102,7.89829762 77.4759461,7.89829762 C83.8654819,7.89829762 89.0183334,13.0511491 89.0183334,19.440685 C89.0183334,25.8302208 83.8654819,30.9830723 77.4759461,30.9830723 C71.0864102,30.9830723 65.9335587,25.6241068 65.9335587,19.440685 M58.5134526,19.440685 C58.5134526,29.952502 66.964129,38.4031785 77.4759461,38.4031785 C80.773771,38.4031785 83.8654819,37.5787222 86.7510788,35.9298098 L87.3694209,35.7236957 L88.8122194,34.8992395 L88.8122194,40.258205 C88.8122194,46.0293987 84.6899382,50.9761361 78.9187445,52.0067064 L78.9187445,52.0067064 L78.9187445,52.0067064 C76.8576039,52.2128205 75.2086914,53.861733 75.2086914,55.9228736 C75.2086914,57.9840142 76.8576039,59.8390407 79.1248586,59.8390407 C79.5370867,59.8390407 79.7432007,59.8390407 80.1554289,59.6329266 L80.1554289,59.6329266 L80.1554289,59.6329266 C89.2244475,58.1901282 96.2323255,50.357794 96.6445536,41.2887753 L96.6445536,40.8765472 L96.6445536,18.6162287 C96.2323255,8.5166398 87.7816491,0.478191466 77.6820601,0.478191466 C66.964129,0.272077406 58.5134526,8.92886792 58.5134526,19.440685"></path>
                </g>
                <path d="M174.647036,46.7615574 L160.348904,32.4634256 C160.012254,32.1267748 159.472342,32.1267748 159.135691,32.4634256 C158.79904,32.8000764 158.79904,33.3399881 159.135691,33.6766389 L172.82404,47.3649881 L159.135691,61.0533373 C158.79904,61.3899881 158.79904,61.9298998 159.135691,62.2665506 C159.300841,62.4317001 159.523157,62.5206267 159.739122,62.5206267 C159.955086,62.5206267 160.177403,62.438052 160.342553,62.2665506 L174.640684,47.9684188 C174.977335,47.6381199 174.977335,47.0918563 174.647036,46.7615574 Z" fill="#B7B7B7" fill-rule="nonzero"></path>
                <path d="M135.223539,29.8073196 L134.842042,29.2522439 L134.92213,29.1600173 L135.492788,28.996386 C135.500057,29.0433398 135.503859,29.0914415 135.503859,29.1404358 C135.503859,29.4016963 135.396492,29.6378568 135.223539,29.8073196 Z M134.714258,28.2178099 C135.017232,28.2647406 135.272012,28.4573557 135.404897,28.7217929 L134.848708,28.8812737 L134.714258,28.8812737 L134.714258,28.2178099 Z M134.130268,29.9640064 L134.634784,29.4594785 L134.989106,29.9750087 C134.863107,30.038379 134.720797,30.0741103 134.57015,30.0741103 C134.411075,30.0741103 134.261356,30.0341821 134.130268,29.9640064 Z M134.426077,28.2178099 L134.426077,28.8812737 L134.337572,28.8812737 L133.754336,28.6861311 C133.891626,28.4401161 134.136911,28.2626074 134.426077,28.2178099 Z M135.483037,28.2275369 C135.726896,28.4713839 135.861184,28.7955742 135.861196,29.1404358 C135.861196,29.4852742 135.726908,29.809476 135.483061,30.0533231 C135.239225,30.2971585 134.915023,30.4314465 134.570185,30.4314465 C134.317654,30.4314465 134.07623,30.3593347 133.869274,30.2250119 L134.037299,30.0569866 C134.193986,30.1484249 134.376063,30.2009089 134.570185,30.2009089 C135.15494,30.2009089 135.63067,29.7251794 135.63067,29.1404242 C135.63067,28.555669 135.15494,28.0799395 134.570185,28.0799395 C134.074816,28.0799395 133.657715,28.4213926 133.54178,28.8812737 L133.305074,28.8812737 C133.354926,28.6352471 133.475708,28.4091034 133.657275,28.2275369 C133.901122,27.9836899 134.225323,27.8494019 134.570162,27.8494019 C134.915,27.8494019 135.239202,27.9836899 135.483037,28.2275369 Z M132.949987,33.1164766 L133.138607,33.1164766 L133.272107,33.4808501 L132.21645,33.4808501 L132.349961,33.1164766 L132.496065,33.1164766 L132.496065,30.8424493 L130.80837,29.154777 L130.80837,29.0300305 L134.637659,29.0300305 L134.637659,29.154777 L132.949987,30.8424493 L132.949987,33.1164766 Z M132.146531,28.8812737 L131.81862,28.8812737 L131.164442,28.2271079 L131.328421,28.063152 L132.146531,28.8812737 Z" fill="#565656" fill-rule="nonzero"></path>
            </g>
        </g>
    </g>
</svg>