<svg width="15px" height="14px" viewBox="0 0 15 14" version="1.1" xmlns="http://www.w3.org/2000/svg">
    <g stroke="none" stroke-width="1" fill="none" fill-rule="evenodd">
        <g transform="translate(-967.000000, -414.000000)" fill-rule="nonzero">
            <g transform="translate(960.149126, 309.890697)">
                <g transform="translate(7.181745, 103.699231)">
                    <path d="M13.7060002,0.578096109 C13.5908161,0.499793121 13.4430134,0.48793184 13.3168483,0.546635914 L0.571206917,6.47996371 C0.347278906,6.58425958 0.205777531,6.81226491 0.21138384,7.05917415 C0.216804816,7.30131108 0.363356502,7.51879878 0.585060522,7.61586669 L12.3357443,12.7336851 C12.7280932,12.9120213 13.1900808,12.6312889 13.2152861,12.2030318 L13.8784985,0.928281895 C13.8866068,0.789375175 13.8211381,0.65630643 13.7060002,0.578096109 Z" fill="#E5E5E5"></path>
                    <polygon id="Shape" fill="#CCCCCC" points="4.03942693 9.12039604 4.83362309 14.4291996 13.6552655 0.549276903"></polygon>
                    <path d="M13.316941,0.546635914 L0.571206917,6.47996371 C0.351726886,6.58212825 0.208603852,6.80990192 0.21124484,7.05194618 C0.213932162,7.29440744 0.36303217,7.51870612 0.585014189,7.61586669 L4.03947326,9.12034971 L13.6552655,0.549276903 C13.5493479,0.498217795 13.4252215,0.49622547 13.316941,0.546635914 Z" fill="#FFFFFF"></path>
                    <polygon id="Shape" fill="#E5E5E5" points="5.88288312 9.9232565 4.83362309 14.4291996 13.6552655 0.549276903"></polygon>
                    <path d="M13.7060002,0.578096109 C13.6897373,0.567022491 13.6726404,0.557616866 13.6552655,0.549276903 L5.88288312,9.9232565 L12.335698,12.7336851 C12.7280469,12.9120213 13.1900345,12.6312889 13.2152397,12.2030318 L13.8784521,0.928281895 C13.8866068,0.789375175 13.8211381,0.65630643 13.7060002,0.578096109 Z" fill="#FFFFFF"></path>
                </g>
            </g>
        </g>
    </g>
</svg>